<?xml version="1.0" encoding="UTF-8" standalone="no"?>
<svg
   xmlns:dc="http://purl.org/dc/elements/1.1/"
   xmlns:cc="http://creativecommons.org/ns#"
   xmlns:rdf="http://www.w3.org/1999/02/22-rdf-syntax-ns#"
   xmlns:svg="http://www.w3.org/2000/svg"
   xmlns="http://www.w3.org/2000/svg"
   viewBox="0 0 371.93332 293.67999"
   height="293.67999"
   width="371.93332"
   xml:space="preserve"
   id="svg2"
   version="1.1"><metadata
     id="metadata8"><rdf:RDF><cc:Work
         rdf:about=""><dc:format>image/svg+xml</dc:format><dc:type
           rdf:resource="http://purl.org/dc/dcmitype/StillImage" /></cc:Work></rdf:RDF></metadata><defs
     id="defs6"><clipPath
       id="clipPath20"
       clipPathUnits="userSpaceOnUse"><path
         id="path18"
         d="M 2041.02,951.98 C 2002.5,389.039 1514.92,-36.0898 951.977,2.42188 389.035,40.9414 -36.0938,528.52 2.42188,1091.46 40.9414,1654.4 528.52,2079.53 1091.46,2041.02 1654.4,2002.5 2079.53,1514.92 2041.02,951.98 Z" /></clipPath><clipPath
       id="clipPath162"
       clipPathUnits="userSpaceOnUse"><path
         id="path160"
         d="m 1632.42,2113.27 c -55.77,23.23 -115.44,-0.02 -152.75,-53.01 35.74,37.02 84.95,51.21 131.44,31.91 71.78,-29.81 109.73,-127.76 84.7,-218.85 -14.49,-52.66 -46.83,-91.46 -85.4,-109.06 49.1,12.29 92.14,56.79 109.78,121.1 25.99,94.87 -13.34,196.88 -87.77,227.91 z" /></clipPath><linearGradient
       id="linearGradient168"
       spreadMethod="pad"
       gradientTransform="matrix(260.33,-31.5591,-31.5591,-260.33,1467.47,1959.65)"
       gradientUnits="userSpaceOnUse"
       y2="0"
       x2="1"
       y1="0"
       x1="0"><stop
         id="stop164"
         offset="0"
         style="stop-opacity:1;stop-color:#e88a0f" /><stop
         id="stop166"
         offset="1"
         style="stop-opacity:1;stop-color:#fcd006" /></linearGradient><clipPath
       id="clipPath178"
       clipPathUnits="userSpaceOnUse"><path
         id="path176"
         d="m 1966.57,2033.39 c -56.43,21.34 -115.28,-3.88 -150.83,-58.04 34.5,38.16 83.19,53.98 130.23,36.26 72.64,-27.36 113.7,-123.91 91.63,-215.72 -12.78,-53.07 -43.82,-92.91 -81.77,-111.77 48.63,13.92 90.19,59.81 105.73,124.61 22.9,95.62 -19.66,196.17 -94.99,224.66 z" /></clipPath><linearGradient
       id="linearGradient184"
       spreadMethod="pad"
       gradientTransform="matrix(260.909,-22.9628,-22.9628,-260.909,1806.87,1874.54)"
       gradientUnits="userSpaceOnUse"
       y2="0"
       x2="1"
       y1="0"
       x1="0"><stop
         id="stop180"
         offset="0"
         style="stop-opacity:1;stop-color:#e88a0f" /><stop
         id="stop182"
         offset="1"
         style="stop-opacity:1;stop-color:#fcd006" /></linearGradient></defs><g
     transform="matrix(1.3333333,0,0,-1.3333333,0,293.68)"
     id="g10"><g
       transform="scale(0.1)"
       id="g12"><g
         id="g14"><g
           clip-path="url(#clipPath20)"
           id="g16"><path
             id="path22"
             style="fill:#a6c9e9;fill-opacity:1;fill-rule:nonzero;stroke:none"
             d="M 2041.02,951.98 C 2002.5,389.039 1514.92,-36.0898 951.977,2.42188 389.035,40.9414 -36.0938,528.52 2.42188,1091.46 40.9414,1654.4 528.52,2079.53 1091.46,2041.02 1654.4,2002.5 2079.53,1514.92 2041.02,951.98" /><path
             id="path24"
             style="fill:#ffffff;fill-opacity:1;fill-rule:nonzero;stroke:none"
             d="M 1639.01,560.398 C 1509.28,365.461 1385.39,165.809 1255.48,-29.1914 1313.87,72.5195 1371.4,174.672 1428.34,277.16 c 56.98,102.461 113.74,205.192 172.76,306.871 l 37.91,-23.633 v 0" /><path
             id="path26"
             style="fill:#ffffff;fill-opacity:1;fill-rule:nonzero;stroke:none"
             d="m 1342.81,266.988 c -91.53,-153.297 -189.43,-303.7263 -291.64,-450.148 44.04,77.68 88.75,155.1014 130.96,233.5116 41.98,78.4884 81.5,158.4884 121.61,238.2894 l 39.07,-21.653 v 0" /><path
             id="path28"
             style="fill:#ffffff;fill-opacity:1;fill-rule:nonzero;stroke:none"
             d="M 1190.26,400.488 C 1043.26,168.262 894.207,-64.1602 726.594,-282.258 882.176,-55.3398 1017.65,183.5 1151.93,423.43 l 38.33,-22.942 v 0" /><path
             id="path30"
             style="fill:#ffffff;fill-opacity:1;fill-rule:nonzero;stroke:none"
             d="M 1333.03,901.629 939.902,1071.35 784.121,898.25 C 523.738,889.32 475.727,649.859 475.727,649.859 222.777,670.16 72.2383,349.191 72.2383,349.191 L 179.836,189.641 454.113,4.28125 657.184,-139.148 633.141,-178.629 829.164,-167.41 C 995.863,71.3008 944.75,207.871 917.855,252.738 l 415.175,648.891" /></g></g><path
         id="path32"
         style="fill:#aab0c2;fill-opacity:1;fill-rule:nonzero;stroke:none"
         d="m 2224.22,1679.68 c 33.52,-55 77.17,-73.72 114.29,-78.06 -37.4,-22.99 -97.47,-44.12 -138.02,-58.67 -21.8,2.18 -41.06,6.42 -59.23,45.82 -16.49,35.4 -10.33,92.76 -2.35,113.95 l -0.13,0.29 c 24.23,11.92 66.52,41.34 82.04,55.13 l -13.23,-14.33 c 0.5,-18.33 3.34,-42.23 16.63,-64.13" /><path
         id="path34"
         style="fill:#aab0c2;fill-opacity:1;fill-rule:nonzero;stroke:none"
         d="m 2658.47,1954.62 c 34.91,-3.35 99.97,-10.8 110.48,-18.78 3.76,-2.92 21.96,-26.53 20.52,-31.61 0,-0.1 -0.09,-0.3 -0.08,-0.41 l -120.67,14.16 c -0.08,-0.4 -0.26,-0.81 -0.34,-1.12 l -29.1,37.09 c 0.46,0.82 1.02,1.55 1.69,2.19 3.82,-0.31 9.96,-0.8 17.5,-1.52" /><path
         id="path36"
         style="fill:#080604;fill-opacity:1;fill-rule:nonzero;stroke:none"
         d="m 2668.38,1916.86 c 0.08,0.31 0.26,0.72 0.34,1.12 l 120.67,-14.16 c -9.08,-40.6 -57.97,-109.64 -164.34,-121 -5.27,-0.56 -10.36,-0.92 -15.26,-1.17 -9.69,-0.38 -18.71,-0.13 -27.06,0.55 -61.16,5.73 -86.56,39 -86.56,39 -2.12,2.19 -4.14,4.5 -6.05,6.7 l 0.69,0.34 c 0,0 44.52,-49.23 124.82,18.59 29.68,25.12 43.22,36.51 52.75,70.03" /><path
         id="path38"
         style="fill:#aab0c2;fill-opacity:1;fill-rule:nonzero;stroke:none"
         d="m 2760.59,2092.32 c 0,0 3.38,-25.46 -3.9,-39.95 -13.24,2.44 -70.04,12.9 -141.32,24.64 -1.68,-0.29 -3.37,-0.67 -5.05,-1.06 l 0.81,43.7 c 56.67,0.04 129.11,-22.85 149.46,-27.33" /><path
         id="path40"
         style="fill:#080604;fill-opacity:1;fill-rule:nonzero;stroke:none"
         d="m 2639.28,1953.95 c -7.13,-11.57 -4.87,-40.59 -61.37,-73.87 -52.51,-30.98 -70.67,13.67 -74.6,26.08 l -0.69,-0.23 c 0,0 -20,37.34 4.7,83.74 15.37,28.91 45.2,72.96 103,86.28 1.68,0.39 3.37,0.77 5.05,1.06 71.28,-11.74 128.08,-22.2 141.32,-24.64 -1.55,-2.98 -3.53,-5.48 -6.05,-7.21 -12.68,-8.55 -80.06,-34.57 -92.17,-90.54 -7.54,0.72 -13.68,1.21 -17.5,1.52 -0.67,-0.64 -1.23,-1.37 -1.69,-2.19" /><path
         id="path42"
         style="fill:#778292;fill-opacity:1;fill-rule:nonzero;stroke:none"
         d="m 2384.04,1599.79 0.26,-1.29 c -4.13,-1.31 -32.27,-9.33 -66.92,-1.16 -32.93,7.66 -71.69,29.84 -101.56,86.21 -11.84,22.43 -14.42,45.84 -14.91,63.63 -0.11,0.1 -0.12,0.3 -0.02,0.4 l 0.1,0.01 c 0.5,17.84 102.84,99.53 221.46,204.14 0,0 2.53,2.86 18.02,5.34 0,0 -4.7,-1.39 3.25,-2.29 l -3.93,-4.9 c -0.09,-0.31 2.85,1.01 2.85,1.01 0,0 11.83,-2.06 11.94,-18.37 -45.99,-13.13 -44.18,-84.19 -17.66,-125.81 32.94,-51.82 76.02,-64.27 109.55,-65.99 9.44,-0.52 35.26,3.68 35.84,37.95 l 0.42,3.53 c 8.35,-0.68 17.37,-0.93 27.06,-0.55 -0.53,-15.34 -1.6,-33.82 -11.85,-43.04 l -3.32,-3.68 c -85.06,-90.48 -159.72,-125.17 -210.58,-135.14" /><path
         id="path44"
         style="fill:#080604;fill-opacity:1;fill-rule:nonzero;stroke:none"
         d="m 2582.73,1782.2 -0.42,-3.53 c -0.58,-34.27 -26.4,-38.47 -35.84,-37.95 -33.53,1.72 -76.61,14.17 -109.55,65.99 -26.52,41.62 -31.03,111.28 14.97,124.4 0.19,-25.72 6.53,-66.05 38.23,-103.21 1.91,-2.2 3.93,-4.51 6.05,-6.7 0,0 25.4,-33.27 86.56,-39" /><path
         id="path46"
         style="fill:#aab0c2;fill-opacity:1;fill-rule:nonzero;stroke:none"
         d="m 2208.95,1544.96 c -51.74,-19.72 -97.82,-31.35 -114.05,-35.26 -1.83,58.52 -4.45,112.75 -7.64,162.23 l 0.31,0.04 c 0,0 24.22,10.36 50.98,24.58 l 0.11,-0.28 c -7.06,-20.32 -3.36,-54.23 11.5,-88.27 16.38,-37.87 39.29,-60.88 58.79,-63.04" /><path
         id="path48"
         style="fill:#778292;fill-opacity:1;fill-rule:nonzero;stroke:none"
         d="m 2454.23,1958.27 -14.58,-5.67 c 1.59,8.29 39.07,126.05 128.55,160.48 11.99,4.61 26.81,6.46 42.93,6.57 l -0.81,-43.7 c -57.8,-13.32 -87.63,-57.37 -103,-86.28 -24.7,-46.4 -4.7,-83.74 -4.7,-83.74 l 0.69,0.23 c 3.93,-12.41 22.09,-57.06 74.6,-26.08 56.5,33.28 54.24,62.3 61.37,73.87 l 29.1,-37.09 c -9.53,-33.52 -23.07,-44.91 -52.75,-70.03 -80.3,-67.82 -124.82,-18.59 -124.82,-18.59 l -0.69,-0.34 c -31.7,37.16 -52.61,71.73 -52.8,97.45 -0.12,16.31 2.26,26.74 2.26,26.74 0,0 14.57,5.87 14.65,6.18" /><path
         id="path50"
         style="fill:#778292;fill-opacity:1;fill-rule:nonzero;stroke:none"
         d="m 2252.2,1563.38 c -46.37,-24.48 -89.48,60.27 -92.85,96.15 -2.36,16.45 -2.7,34.65 5.1,50.75 -1.98,-16.83 1.56,-32.37 5.67,-47.47 9.9,-31.01 40.44,-108.27 82.08,-99.43 v 0" /><path
         id="path52"
         style="fill:#566576;fill-opacity:1;fill-rule:nonzero;stroke:none"
         d="m 2304.57,1709.24 c 6.24,-17.91 2.26,-35.57 -8.88,-39.45 -11.15,-3.88 -25.24,7.49 -31.47,25.4 -6.24,17.91 -2.26,35.58 8.88,39.45 11.15,3.88 25.24,-7.49 31.47,-25.4" /><path
         id="path54"
         style="fill:#fab10b;fill-opacity:1;fill-rule:nonzero;stroke:none"
         d="m 2123.41,1119.3 c -131.29,14.43 -662.27,64.52 -662.27,64.52 0,0 -97.93,9.99 -137.01,10.63 l -10.75,-5.24 -1,2.05 c 18.17,522.97 -11.4,1005.49 -11.4,1005.49 l -0.21,0.29 8.13,5.52 c 262.82,-13.62 627.89,-86.57 787.35,-171.47 l 17.25,-8.45 c 0,0 49.19,-482.08 9.91,-903.34" /><path
         id="path56"
         style="fill:#c59d1a;fill-opacity:1;fill-rule:nonzero;stroke:none"
         d="m 1461.14,1183.82 -49.95,-20.23 c -30.79,1.05 -88.82,2.24 -112.27,2.56 l 14.46,23.06 10.75,5.24 c 39.08,-0.64 137.01,-10.63 137.01,-10.63" /><path
         id="path58"
         style="fill:#fcd006;fill-opacity:1;fill-rule:nonzero;stroke:none"
         d="m 825.016,1878.45 295.984,196.01 179.77,122.58 0.21,-0.29 c 0,0 29.57,-482.52 11.4,-1005.49 l 1,-2.05 c 0,0 4.41,1.35 -2.27,-11.3 L 789.367,920.449 c 0.395,27.281 36.41,942.821 35.649,958.001" /><path
         id="path60"
         style="fill:#95461d;fill-opacity:1;fill-rule:nonzero;stroke:none"
         d="M 1749.39,1164.07 1322,1192.48 c 0.09,0.18 0.25,0.4 0.34,0.57 l -1.03,-0.53 -4.09,0.27 c -0.01,-0.65 0.29,-1.32 0.74,-1.99 L 796.746,924.691 v 0 c 37.231,-1.64 121.813,-9.851 197.359,-22.871 92.305,-15.898 419.825,-50.691 497.185,-61.422 l -6.41,-6.566 11.89,5.848 c 0.2,-0.02 0.46,-0.059 0.66,-0.078 l -0.58,0.117 617.1,270.591 9.36,6.98 c 0.07,0.71 0.04,1.31 0.1,2.01 -131.29,14.43 -233.21,36.32 -374.02,44.77" /><path
         id="path62"
         style="fill:#566576;fill-opacity:1;fill-rule:nonzero;stroke:none"
         d="M 1121,2074.46 847.992,1888.43 c 0.762,-15.18 -2.707,-41.79 -2.133,-57.18 l 0.633,-0.68 c -27.906,-24.43 -41.219,-72.36 -38.851,-127.41 -12.547,-5.33 -25.668,-11.2 -39.368,-17.59 -5.57,-2.69 -11.144,-5.37 -16.91,-8.16 l 40.586,230.32 c 36.68,140.82 155.332,206.47 288.831,182.04 7.38,-1.43 22.86,-6.57 40.22,-15.31" /><path
         id="path64"
         style="fill:#080604;fill-opacity:1;fill-rule:nonzero;stroke:none"
         d="m 1020.51,790.898 c 3.03,-10.558 4.43,-20.398 4.39,-29.519 -10.74,30.402 -93.15,68.312 -197.533,89.203 -115.91,23.207 -215,16.527 -221.226,-14.934 l -1.418,0.332 c 1.785,8.301 5.082,16.379 9.707,24.02 21.465,25.109 39.66,47.551 54.89,67.238 30.043,7.922 81.821,7.621 140.692,-2.238 7.066,-1.141 14.242,-2.488 21.523,-3.918 81.324,-16.344 153.758,-47.043 174.065,-72.551 4.44,-18.711 9.43,-38.281 14.91,-57.633" /><path
         id="path66"
         style="fill:#ffffff;fill-opacity:1;fill-rule:nonzero;stroke:none"
         d="m 1024.9,761.379 c 0.07,-5.5 -0.46,-10.828 -1.61,-15.797 -17.21,-26.191 -110.712,-30.492 -218.731,-8.891 -115.911,23.207 -204.746,67.508 -198.418,98.957 6.226,31.461 105.316,38.141 221.226,14.934 104.383,-20.891 186.793,-58.801 197.533,-89.203" /><path
         id="path68"
         style="fill:#080604;fill-opacity:1;fill-rule:nonzero;stroke:none"
         d="m 994.105,901.82 c 3.329,-16.359 7.135,-34.39 11.495,-53.289 -20.307,25.508 -92.741,56.207 -174.065,72.551 -7.281,1.43 -14.457,2.777 -21.523,3.918 l 0.465,2.73 c 0.496,0.02 1.101,-0.05 1.707,-0.109 37.226,-1.641 106.375,-12.781 181.921,-25.801" /><path
         id="path70"
         style="fill:#566576;fill-opacity:1;fill-rule:nonzero;stroke:none"
         d="m 839.363,1526.23 1.02,-2.35 c -5.504,-143.45 -11.895,-299.17 -16.324,-418.24 -78.618,4.35 -148.118,-11.35 -177.797,-22.46 -0.914,8.27 0.125,13.52 0.125,13.52 l 57.379,296.66 c 35.394,36.82 58.964,69.85 69.5,81.39 8.726,9.65 14.156,19.14 16.418,29.96 l 0.906,-0.15 c 17.223,7.97 33.48,15.2 48.773,21.67" /><path
         id="path72"
         style="fill:#aab0c2;fill-opacity:1;fill-rule:nonzero;stroke:none"
         d="m 819.563,1035.72 c -36.352,2.18 -66.317,-1.33 -82.028,-9.43 l 0.551,-0.97 c 0,0 -3.406,-5.98 -10.926,-17.77 l -0.617,0.37 c -64.445,21.19 -77.918,56.16 -80.281,75.26 29.679,11.11 99.179,26.81 177.797,22.46 -0.786,-24.17 -1.645,-46.95 -2.301,-67.71 l -0.188,-2.31 c -0.703,0.07 -1.402,0.03 -2.007,0.1" /><path
         id="path74"
         style="fill:#080604;fill-opacity:1;fill-rule:nonzero;stroke:none"
         d="m 819.563,1035.72 c -0.344,-17.04 -1.696,-33.93 -3.02,-49.411 -56.223,6.98 -100.746,2.339 -110.316,-12.457 l -1.348,0.937 c 9.629,13.602 16.988,24.582 22.281,32.761 7.52,11.79 10.926,17.77 10.926,17.77 l -0.551,0.97 c 15.711,8.1 45.676,11.61 82.028,9.43" /><path
         id="path76"
         style="fill:#080604;fill-opacity:1;fill-rule:nonzero;stroke:none"
         d="m 706.227,973.852 c 9.57,14.796 54.093,19.437 110.316,12.457 -1.965,-22.727 -4.273,-42.469 -4.199,-55.879 l -0.16,-2.809 c -0.606,0.059 -1.211,0.129 -1.707,0.109 L 810.012,925 c -58.871,9.859 -110.649,10.16 -140.692,2.238 14.297,18.344 26.016,34.25 35.559,47.551 l 1.348,-0.937" /><path
         id="path78"
         style="fill:#fcd006;fill-opacity:1;fill-rule:nonzero;stroke:none"
         d="m 1016.87,714.77 c -6.92,-32.098 -109.39,-44.641 -223.542,-20.04 -114.152,24.602 -201.082,70.559 -194.164,102.668 6.918,32.102 105.063,38.192 219.219,13.59 114.152,-24.59 205.407,-64.109 198.487,-96.218" /><path
         id="path80"
         style="fill:#080604;fill-opacity:1;fill-rule:nonzero;stroke:none"
         d="m 601.391,799.441 c 7.554,35.821 82.707,39.129 112.492,40.219 82.945,0.219 165.715,-16.781 240.496,-53.34 18.59,-9.488 36.758,-20.5 52.311,-35.851 7.58,-8.387 15.6,-18.11 15.12,-30.469 -0.7,-12.578 -12.31,-19.168 -22.779,-21.75 8.489,5.262 16.449,13.629 14.459,21.52 -11.67,55.628 -387.853,136.3 -412.099,79.671 v 0" /><path
         id="path82"
         style="fill:#e88a0f;fill-opacity:1;fill-rule:nonzero;stroke:none"
         d="m 1275.73,1236.56 c -1.43,-18.87 -12.1,-33.44 -23.84,-32.55 -11.74,0.88 -20.1,16.9 -18.67,35.76 1.43,18.87 12.1,33.44 23.84,32.55 11.74,-0.88 20.1,-16.9 18.67,-35.76" /><path
         id="path84"
         style="fill:#e88a0f;fill-opacity:1;fill-rule:nonzero;stroke:none"
         d="m 1270.43,2083.73 c -1.43,-18.86 -12.1,-33.44 -23.84,-32.55 -11.73,0.89 -20.09,16.9 -18.67,35.77 1.43,18.86 12.1,33.44 23.84,32.55 11.74,-0.89 20.1,-16.9 18.67,-35.77" /><path
         id="path86"
         style="fill:#e88a0f;fill-opacity:1;fill-rule:nonzero;stroke:none"
         d="m 921.523,1852.27 c -1.425,-18.86 -12.097,-33.43 -23.835,-32.55 -11.739,0.89 -20.098,16.91 -18.672,35.77 1.425,18.87 12.097,33.44 23.839,32.55 11.739,-0.89 20.094,-16.9 18.668,-35.77" /><path
         id="path88"
         style="fill:#e88a0f;fill-opacity:1;fill-rule:nonzero;stroke:none"
         d="m 892.516,1037.64 c -1.426,-18.87 -12.098,-33.44 -23.836,-32.55 -11.739,0.88 -20.098,16.9 -18.672,35.76 1.426,18.87 12.097,33.44 23.836,32.55 11.738,-0.88 20.097,-16.9 18.672,-35.76" /><path
         id="path90"
         style="fill:#ffffff;fill-opacity:1;fill-rule:nonzero;stroke:none"
         d="m 1082.72,607.59 c 0,0 -56.05,-6.141 -57.7,-39.371 -1.64,-33.239 101.39,-104.309 101.39,-104.309 l 124.55,-169.449 14.22,-19.172 83.01,-2.461 19.99,63.992 -285.46,270.77" /><path
         id="path92"
         style="fill:#080604;fill-opacity:1;fill-rule:nonzero;stroke:none"
         d="m 1044.6,594.07 c -5.37,-8.691 -12.9,-14.07 -7.26,-24.808 8.57,-18.524 25.05,-35.34 39.93,-50.012 8,-7.629 16.19,-15.398 24.48,-22.461 l -1.28,0.93 c 20.59,-12.949 39.73,-29.008 52.55,-49.949 28.84,-44.098 59.94,-87.348 92.46,-128.84 8.67,-9.879 17.63,-23.942 28.49,-29.899 11.26,-5.633 26.39,-8.41 40.88,-10.101 14.76,-1.539 29.59,-2.09 44.93,-7.309 l 0.14,-2.371 c -15.07,-6.648 -30.74,-6.898 -46.33,-6.09 -18.38,1.27 -37.56,2.262 -54.01,12.672 -11.86,8.43 -20.35,19.918 -29.47,30.727 -33.38,42.211 -64.67,85.57 -94.1,130.652 -11.39,18.398 -28.68,32.68 -46.5,44.598 -17.51,15.703 -33.51,32.3 -47.99,51.113 -15.44,19.918 -33.47,50.848 1.28,63.43 l 1.8,-2.282 v 0" /><path
         id="path94"
         style="fill:#778292;fill-opacity:1;fill-rule:nonzero;stroke:none"
         d="m 1353.42,540.102 c -35.12,37.378 -56.89,-11.672 -135.44,23.23 -79.67,35.238 -102.58,68.738 -102.58,68.738 l 144.54,226.039 9.65,15.102 0.08,0.5 c 27.88,-3 54.64,-1.449 73.85,4.719 -29.63,-45.848 -51.51,-80.692 -54.29,-85.129 -6.4,-0.231 -14.78,-2.75 -25.02,-10.27 -23.35,-17.402 -29.54,-29.82 -30.78,-32.992 -0.18,-0.508 -0.26,-0.809 -0.26,-0.809 l 3.19,-22.531 181.89,-78.008 -63.45,-110.121 c -0.53,0.571 -0.96,1.051 -1.38,1.532" /><path
         id="path96"
         style="fill:#080604;fill-opacity:1;fill-rule:nonzero;stroke:none"
         d="M 1372.73,476.59 C 1399.01,385.988 1357,303.582 1357,303.582 c 0,0 -56.05,-2.523 -77.77,15.406 -21.74,18.043 -99.06,126.192 -113.79,150.282 -14.73,24.089 -43.25,41.781 -43.25,41.781 0,0 -77.67,67.09 -59.73,88.719 18.03,21.73 52.94,32.3 52.94,32.3 0,0 22.91,-33.5 102.58,-68.738 78.55,-34.902 100.32,14.148 135.44,-23.23 3.42,-10.34 9.38,-29.27 19.31,-63.512" /><path
         id="path98"
         style="fill:#080604;fill-opacity:1;fill-rule:nonzero;stroke:none"
         d="m 1626.42,1240.19 c 14.72,-0.16 32.93,-1.85 49.63,-7.42 -32.83,-4.15 -57.32,-34.82 -55.52,-70.68 0.78,-15.58 6.4,-29.61 15.26,-40.58 -1.05,0.85 -2.41,1.98 -4.27,3.29 -9.36,6.94 -29.12,19.56 -52.2,22.61 -2.93,68.13 15.52,87.48 30.4,92.34 4.69,0.23 10.39,0.52 16.7,0.44" /><path
         id="path100"
         style="fill:#080604;fill-opacity:1;fill-rule:nonzero;stroke:none"
         d="m 1652.57,1248.59 c 1.98,0.32 4.1,0.54 6.23,0.65 46.8,2.35 86.42,-30.01 88.54,-72.26 0.09,-1.69 0.17,-3.26 -0.01,-4.96 -0.58,-31 -21.75,-58.09 -52.36,-69.65 -8.75,-3.48 -18.38,-5.55 -28.49,-6.05 -27.39,-1.38 -52.31,9.08 -68.51,26.52 0,0 -0.27,-0.02 -0.14,0.1 -11.68,12.26 -19,28 -19.89,45.52 -2.02,40.34 30.89,75.11 74.63,80.13" /><path
         id="path102"
         style="fill:#778292;fill-opacity:1;fill-rule:nonzero;stroke:none"
         d="m 1411.19,1163.59 49.95,20.23 135.23,54.66 c 0,0 5.16,0.75 13.35,1.27 -14.88,-4.86 -33.33,-24.21 -30.4,-92.34 -16.63,2.16 -35.11,-0.77 -52.43,-14.66 -14.35,-11.43 -39.48,-43.33 -68.11,-83.22 l -1.03,0.45 -134.92,-62.75 -1.53,140 89.89,36.36" /><path
         id="path104"
         style="fill:#080604;fill-opacity:1;fill-rule:nonzero;stroke:none"
         d="m 1457.75,1049.98 1.03,-0.45 c -15.15,-21.29 -31.4,-44.73 -47.61,-68.678 l -0.11,0.097 -88.17,5.18 -0.06,1.101 134.92,62.75" /><path
         id="path106"
         style="fill:#566576;fill-opacity:1;fill-rule:nonzero;stroke:none"
         d="m 1321.3,1127.23 1.53,-140 0.06,-1.101 88.17,-5.18 0.11,-0.097 c -11.66,-17.204 -23.3,-34.614 -34.46,-51.59 -27.62,7.617 -62.65,11.367 -98.4,19.476 -2.22,0.391 -4.35,0.891 -6.58,1.473 l 0.09,0.211 0.54,216.198 26.56,-0.47 c 23.45,-0.32 81.48,-1.51 112.27,-2.56 l -89.89,-36.36" /><path
         id="path108"
         style="fill:#080604;fill-opacity:1;fill-rule:nonzero;stroke:none"
         d="m 1376.71,929.262 c -11.72,-17.711 -22.87,-34.992 -33.19,-50.832 -19.21,-6.168 -45.97,-7.719 -73.85,-4.719 -37.24,3.84 -76.79,15.668 -103.68,34.84 l 0.46,0.73 111.86,39.36 v 0.097 c 35.75,-8.109 70.78,-11.859 98.4,-19.476" /><path
         id="path110"
         style="fill:#080604;fill-opacity:1;fill-rule:nonzero;stroke:none"
         d="m 1271.73,950.211 c 2.23,-0.582 4.36,-1.082 6.58,-1.473 v -0.097 l -111.86,-39.36 -0.46,-0.73 c -12.78,9.07 -22.62,19.687 -28.14,31.929 -24.8,55.129 -24.88,104.58 -6.16,140.47 6.67,12.65 15.53,23.71 26.6,32.58 l 114.14,55.7 -0.07,-2.61 -0.54,-216.198 -0.09,-0.211" /><path
         id="path112"
         style="fill:#566576;fill-opacity:1;fill-rule:nonzero;stroke:none"
         d="m 1040.71,1859.41 c 0.1,0.01 0.3,-0.09 0.4,-0.08 59.2,-6.53 108.96,-86.38 113.74,-181.56 4.84,-96.29 -62.72,-186.29 -123.95,-189.37 0,0 -60.916,-15.08 -108.369,8.67 l 0.098,0.11 c 15.301,-5.64 30.988,-6.95 46.223,-3.29 60.638,14.77 90.858,104.7 67.498,200.85 -22.48,92.78 -94.897,160.94 -154.44,152.33 l -10.996,-0.36 c 23.731,13.39 107.242,26.08 169.796,12.7" /><path
         id="path114"
         style="fill:#778292;fill-opacity:1;fill-rule:nonzero;stroke:none"
         d="m 1036.35,1694.74 c 23.36,-96.15 -6.86,-186.08 -67.498,-200.85 -15.235,-3.66 -30.922,-2.35 -46.223,3.29 l -0.008,0.1 c -9.992,3.6 -19.781,9.11 -29.25,16.25 l -26.945,24.08 c 14.617,6.04 28.172,11.23 40.359,15.75 l 17.875,-9.02 c 8.129,-2.29 16.36,-2.68 24.274,-0.78 16.418,4.03 29.175,17.08 37.343,35.92 11.774,26.72 14.153,64.99 4.43,105.05 -5.184,21.47 -13.883,41.16 -24.527,57.74 -23.242,36.08 -55.864,57.57 -83.067,51 -26.117,-6.32 -40.593,-36.99 -42.703,-76.74 -10.211,-4.02 -21.199,-8.48 -32.769,-13.37 -2.368,55.05 10.945,102.98 38.851,127.41 8.34,7.43 17.992,12.63 28.973,15.28 2.074,0.51 4.258,0.92 6.445,1.22 59.543,8.61 131.96,-59.55 154.44,-152.33" /><path
         id="path116"
         style="fill:#aab0c2;fill-opacity:1;fill-rule:nonzero;stroke:none"
         d="m 990.707,1684.53 c 9.723,-40.06 7.344,-78.33 -4.43,-105.05 l -0.714,0.26 c 0,0 -20.852,-5.45 -58.133,-18.74 l -0.235,0.69 c 18.192,14.53 20.231,57.69 6.469,98.35 -13.266,38.88 -39.187,66.51 -61.801,68.18 34.825,12.37 56.27,17.95 56.27,17.95 0,0 22.703,6.54 37.269,-4.44 l 0.778,0.54 c 10.644,-16.58 19.343,-36.27 24.527,-57.74" /><path
         id="path118"
         style="fill:#080604;fill-opacity:1;fill-rule:nonzero;stroke:none"
         d="m 985.563,1579.74 0.714,-0.26 c -8.168,-18.84 -20.925,-31.89 -37.343,-35.92 -7.914,-1.9 -16.145,-1.51 -24.274,0.78 l -17.875,9.02 c 7.367,2.87 14.254,5.32 20.645,7.64 37.281,13.29 58.133,18.74 58.133,18.74" /><path
         id="path120"
         style="fill:#080604;fill-opacity:1;fill-rule:nonzero;stroke:none"
         d="m 871.863,1728.22 c -9.543,-3.38 -20.062,-7.22 -31.453,-11.69 2.11,39.75 16.586,70.42 42.703,76.74 27.203,6.57 59.825,-14.92 83.067,-51 l -0.778,-0.54 c -14.566,10.98 -37.269,4.44 -37.269,4.44 0,0 -21.445,-5.58 -56.27,-17.95" /><path
         id="path122"
         style="fill:#aab0c2;fill-opacity:1;fill-rule:nonzero;stroke:none"
         d="m 807.641,1703.16 c 11.57,4.89 22.558,9.35 32.769,13.37 11.391,4.47 21.91,8.31 31.453,11.69 22.614,-1.67 48.535,-29.3 61.801,-68.18 13.762,-40.66 11.723,-83.82 -6.469,-98.35 l 0.235,-0.69 c -6.391,-2.32 -13.278,-4.77 -20.645,-7.64 -12.187,-4.52 -25.742,-9.71 -40.359,-15.75 -5.102,-2.06 -10.399,-4.23 -15.793,-6.5 l -0.231,0.59 c 10.457,19.05 9.45,53.04 -4.394,87.48 -18.629,45.93 -53.25,75.33 -77.289,65.51 l -0.446,0.88 c 13.7,6.39 26.821,12.26 39.368,17.59" /><path
         id="path124"
         style="fill:#aab0c2;fill-opacity:1;fill-rule:nonzero;stroke:none"
         d="m 751.363,1677.41 c 5.766,2.79 11.34,5.47 16.91,8.16 l 0.446,-0.88 c 24.039,9.82 58.66,-19.58 77.289,-65.51 13.844,-34.44 14.851,-68.43 4.394,-87.48 l 0.231,-0.59 c -3.625,-1.59 -7.449,-3.18 -11.27,-4.88 -15.293,-6.47 -31.55,-13.7 -48.773,-21.67 l -0.906,0.15 c 3.504,15.9 0.054,34.75 -9.692,61.29 -12.179,33.13 -36.996,68.73 -80.238,84.38 17.625,9.9 34.996,18.88 51.609,27.03" /><path
         id="path126"
         style="fill:#778292;fill-opacity:1;fill-rule:nonzero;stroke:none"
         d="m 699.754,1650.38 c 43.242,-15.65 68.059,-51.25 80.238,-84.38 9.746,-26.54 22.637,-58.39 19.129,-74.29 -2.258,-10.83 -7.687,-20.31 -16.418,-29.96 -10.531,-11.54 -43.543,-31.57 -78.937,-68.39 -34.774,-25.05 -64.649,-71 -121.446,-99.74 l -8.492,1.59 c 8.039,13.32 12.676,28.68 14.254,45.08 3.199,2.06 6.281,4.51 9.051,7.16 34.012,32.55 29.34,105.5 -14.621,151.46 -35.516,37.26 -86.086,45.33 -122.145,29.7 -4.945,0.75 -9.363,1.03 -12.875,1.16 -6.117,0.19 -9.695,-0.29 -9.695,-0.29 0,0 -24.16,-9.43 -54.031,-26.65 96.339,139.01 263.699,156.04 263.699,156.04 19.812,0.19 37.187,-2.84 52.289,-8.49" /><path
         id="path128"
         style="fill:#080604;fill-opacity:1;fill-rule:nonzero;stroke:none"
         d="m 596.461,1503.15 c 43.961,-45.95 48.629,-118.91 14.621,-151.46 -2.769,-2.64 -5.852,-5.1 -9.051,-7.16 4.672,46.49 -14.988,100.97 -49.984,137.86 -25.141,35.99 -56.836,47.11 -77.731,50.46 36.059,15.63 86.629,7.56 122.145,-29.7" /><path
         id="path130"
         style="fill:#778292;fill-opacity:1;fill-rule:nonzero;stroke:none"
         d="m 601.852,1348.06 c -1.579,-16.4 -6.211,-31.76 -14.254,-45.08 -5.278,-8.57 -11.895,-16.31 -20.078,-22.83 -5.86,-8.91 -5.743,-9.3 -24.235,-23.85 l -31.215,39.38 c 60.254,32.27 63.203,113.02 13.887,167.91 -64.367,71.46 -81.66,-54.66 -81.66,-54.66 -0.395,-0.13 -0.684,-0.34 -1.07,-0.56 l -33.039,29.78 c 0.199,0.01 0.296,0.12 0.492,0.23 0,0 -4.567,76.86 50.582,99.16 3.511,-0.13 7.929,-0.4 12.875,-1.16 20.894,-3.35 52.593,-14.47 77.73,-50.46 34.996,-36.89 54.656,-91.37 49.985,-137.86" /><path
         id="path132"
         style="fill:#566576;fill-opacity:1;fill-rule:nonzero;stroke:none"
         d="m 439.785,1257.71 72.188,37.87 0.097,0.1 31.215,-39.38 c -0.48,-0.42 -0.965,-0.75 -1.441,-1.17 -105.336,-69.68 -147.16,-81.59 -147.16,-81.59 l -24.164,34.53 69.265,49.64" /><path
         id="path134"
         style="fill:#080604;fill-opacity:1;fill-rule:nonzero;stroke:none"
         d="m 443.227,1408.37 c 0.386,0.22 0.675,0.43 1.07,0.56 0,0 17.293,126.12 81.66,54.66 49.316,-54.89 46.367,-135.64 -13.887,-167.91 l -0.097,-0.1 -72.188,-37.87 c 21.688,40.64 5.91,87.6 -38.976,126 l -0.325,0.49 c 15.43,9.78 30.219,18.34 42.743,24.17" /><path
         id="path136"
         style="fill:#aab0c2;fill-opacity:1;fill-rule:nonzero;stroke:none"
         d="m 410.188,1438.15 c -49.137,-26.4 -114.762,-85.27 -141.926,-110.56 5.527,57.34 27.148,97.28 53.082,125.12 22.328,23.95 51.277,43.63 76.191,57.9 29.871,17.22 54.031,26.64 54.031,26.64 0,0 3.579,0.48 9.696,0.29 -55.149,-22.3 -50.582,-99.16 -50.582,-99.16 -0.196,-0.11 -0.293,-0.22 -0.492,-0.23" /><path
         id="path138"
         style="fill:#566576;fill-opacity:1;fill-rule:nonzero;stroke:none"
         d="m 410.188,1438.15 33.039,-29.78 c -12.524,-5.83 -27.313,-14.39 -42.743,-24.17 -50.464,-31.88 -106.711,-76.16 -106.711,-76.16 l -26.199,13.3 c 0.192,2.11 0.387,4.23 0.688,6.25 27.164,25.29 92.789,84.16 141.926,110.56" /><path
         id="path140"
         style="fill:#778292;fill-opacity:1;fill-rule:nonzero;stroke:none"
         d="m 838.965,1716.68 c 19.789,9.5 41.609,-5.88 54.441,-20.37 30.668,-32.36 54.024,-119.83 7.766,-147.31 -7.406,-2.66 -14.336,-3.85 -21.867,-5.53 7.687,5.3 17.633,8.12 23.531,15.38 28.707,38.05 -9.422,161.51 -63.871,157.83 v 0" /><path
         id="path142"
         style="fill:#778292;fill-opacity:1;fill-rule:nonzero;stroke:none"
         d="m 746.48,1674.54 c 17.641,10.28 39.563,-2.43 52.77,-14.89 33.41,-33.04 53.535,-87.15 35.59,-132.56 -4.031,-8.87 -11.727,-16.99 -21.039,-18.94 7.758,5.37 11.906,13.22 13.64,21.62 10.711,42.14 -29.101,149.36 -80.961,144.77 v 0" /><path
         id="path144"
         style="fill:#566576;fill-opacity:1;fill-rule:nonzero;stroke:none"
         d="m 760.816,1528.02 c 2.504,-18.79 -4.953,-35.3 -16.648,-36.85 -11.695,-1.56 -23.207,12.42 -25.707,31.22 -2.504,18.79 4.949,35.29 16.644,36.85 11.7,1.56 23.208,-12.42 25.711,-31.22" /><path
         id="path146"
         style="fill:#fcd006;fill-opacity:1;fill-rule:nonzero;stroke:none"
         d="M 689.063,743.77 593.148,569.719 c -5.156,-9.367 1.68,-22.278 8.52,-16.09 l 60.227,54.519 c 6.425,5.813 13.183,-5.41 9.039,-15.019 L 604.176,438.48 c -4.625,-10.71 4.097,-22.281 10.269,-13.609 l 88.504,124.199 c 5.289,7.43 13.254,-0.148 11.184,-10.629 l -12.395,-62.722 c -2.203,-11.149 6.77,-18.539 11.778,-9.699 L 818.16,644.5 796.52,563.211 c 2.703,-9.121 105.019,123.309 122.371,147.539 4.875,6.809 -26.625,46.969 -33.051,46.641 l -191.512,-9.653 c -2.012,-0.097 -3.933,-1.547 -5.265,-3.968" /><path
         id="path148"
         style="fill:#080604;fill-opacity:1;fill-rule:nonzero;stroke:none"
         d="m 1833.85,1534.66 -0.15,-1.01 c -42.1,-26.94 -78.43,-39.18 -78.43,-39.18 -144.34,1.25 -208.51,158.43 -210.92,164.51 l 42.44,-7.77 -0.24,-1.12 c 0,0 66.94,-76.83 109.77,-90.3 35.61,-11.23 112.54,-21.88 137.53,-25.13" /><path
         id="path150"
         style="fill:#ffffff;fill-opacity:1;fill-rule:nonzero;stroke:none"
         d="m 1964.41,2032.07 c 74.54,-28.42 116.62,-128.82 93.93,-224.2 -20,-83.92 -83.27,-136.09 -148.87,-128.21 18.83,4.75 37.21,36.13 37.21,36.13 6.77,10.26 12.06,22.36 15.35,35.91 13.43,56.82 -14.74,117.76 -62.94,136.12 -48.2,18.37 -98.23,-12.86 -111.66,-69.67 l -1.56,-0.26 c -5.4,29.66 -4.95,61.52 2.49,92.8 22.7,95.49 101.52,149.8 176.05,121.38" /><path
         id="path152"
         style="fill:#080604;fill-opacity:1;fill-rule:nonzero;stroke:none"
         d="m 1898.87,1888.11 c 48.27,-18.38 76.48,-79.41 63.03,-136.3 -3.29,-13.57 -8.59,-25.69 -15.37,-35.97 0,0 -18.4,-31.42 -37.27,-36.18 -0.1,0.01 -0.1,0.01 -0.1,0.01 -9.05,1.08 -18.15,3.33 -27.11,6.73 -50.1,19.19 -84.81,68.62 -95.78,129.51 l 0.79,2.43 c 13.45,56.9 63.55,88.16 111.81,69.77" /><path
         id="path154"
         style="fill:#ffffff;fill-opacity:1;fill-rule:nonzero;stroke:none"
         d="m 1632,2113.15 c 73.68,-30.95 112.57,-132.84 86.77,-227.65 -20.1,-73.79 -73.36,-121.56 -130.76,-124.4 15.81,13.22 31.14,38.92 37.26,61.59 15.5,56.71 -12.55,119.31 -62.42,139.99 -47.97,19.81 -98.81,-6.29 -116.29,-58.64 -4.54,30.09 -3.04,62.16 5.43,93.53 25.69,94.71 106.33,146.52 180.01,115.58" /><g
         id="g156"><g
           clip-path="url(#clipPath162)"
           id="g158"><path
             id="path170"
             style="fill:url(#linearGradient168);fill-opacity:1;fill-rule:nonzero;stroke:none"
             d="m 1632.42,2113.27 c -55.77,23.23 -115.44,-0.02 -152.75,-53.01 35.74,37.02 84.95,51.21 131.44,31.91 71.78,-29.81 109.73,-127.76 84.7,-218.85 -14.49,-52.66 -46.83,-91.46 -85.4,-109.06 49.1,12.29 92.14,56.79 109.78,121.1 25.99,94.87 -13.34,196.88 -87.77,227.91" /></g></g><g
         id="g172"><g
           clip-path="url(#clipPath178)"
           id="g174"><path
             id="path186"
             style="fill:url(#linearGradient184);fill-opacity:1;fill-rule:nonzero;stroke:none"
             d="m 1966.57,2033.39 c -56.43,21.34 -115.28,-3.88 -150.83,-58.04 34.5,38.16 83.19,53.98 130.23,36.26 72.64,-27.36 113.7,-123.91 91.63,-215.72 -12.78,-53.07 -43.82,-92.91 -81.77,-111.77 48.63,13.92 90.19,59.81 105.73,124.61 22.9,95.62 -19.66,196.17 -94.99,224.66" /></g></g><path
         id="path188"
         style="fill:#080604;fill-opacity:1;fill-rule:nonzero;stroke:none"
         d="m 1572.5,1973.02 c 53.87,-21.91 84.25,-88.01 67.61,-147.82 -6.56,-23.91 -23.07,-51 -40.11,-64.91 -17.59,-0.85 -35.59,2.11 -53.18,9.39 -53.31,21.98 -89.79,77.38 -99.75,141.67 18.78,55.2 73.61,82.65 125.43,61.67" /><path
         id="path190"
         style="fill:#ffffff;fill-opacity:1;fill-rule:nonzero;stroke:none"
         d="m 1879.24,1594.12 v -0.1 c -9.37,-23.7 -47.61,-60.97 -47.61,-60.97 0,0 -1.65,0.22 -4.55,0.67 -0.97,0.16 -1.93,0.3 -3.19,0.44 -23.97,3.3 -97.75,14.11 -131.91,25.41 -41.09,13.56 -105.43,90.52 -105.43,90.52 l 0.23,1.12 292.46,-57.09" /><path
         id="path192"
         style="fill:#95461d;fill-opacity:1;fill-rule:nonzero;stroke:none"
         d="m 1491.78,1654.6 c 33.57,23.7 86.57,37.97 124.74,18.09 -41.92,-8.19 -81.56,-20.6 -124.74,-18.09 v 0" /><path
         id="path194"
         style="fill:#95461d;fill-opacity:1;fill-rule:nonzero;stroke:none"
         d="m 1666.16,1451.46 c 33.3,-15.89 59.27,-23.14 94.65,-27.6 -29.44,-25.36 -83.24,-9.77 -94.65,27.6 v 0" /><path
         id="path196"
         style="fill:#fab10b;fill-opacity:1;fill-rule:nonzero;stroke:none"
         d="m 1454.14,1778.64 c 0,0 154.27,16.6 183.28,-25.36 l -123.83,-28.14 -59.45,53.5" /><path
         id="path198"
         style="fill:#fab10b;fill-opacity:1;fill-rule:nonzero;stroke:none"
         d="m 1805.68,1714.27 c 0,0 155.08,-3.91 178.52,-49.36 l -126.35,-11.55 -52.17,60.91" /><path
         id="path200"
         style="fill:#080604;fill-opacity:1;fill-rule:nonzero;stroke:none"
         d="m 1800.68,1536.85 c 0,0 37.87,-3.06 54.76,20.58 0,0 -34.09,-68.14 -100.17,-62.96 l 45.41,42.38" /><path
         id="path202"
         style="fill:#ffffff;fill-opacity:1;fill-rule:nonzero;stroke:none"
         d="m 1659.3,551.422 21.41,38.308 -114.41,67.211 -332.87,93.098 1,-19.98 41.84,-43.45 337.53,-111.64 34.09,-25.168 11.41,1.621" /><path
         id="path204"
         style="fill:#aab0c2;fill-opacity:1;fill-rule:nonzero;stroke:none"
         d="M 1682.85,920.219 1623.72,706.18 c -9.52,12.14 -18.94,24.281 -27.63,35.859 -37.24,49.691 -89.54,22.332 -122.48,14.371 53.41,130.738 152.81,362.12 152.81,362.12 l 5.1,6.27 c 1.86,-1.31 3.22,-2.44 4.27,-3.29 -0.1,-0.11 0.1,-0.1 0.1,-0.1 12.3,-15.6 31.1,-25.07 51.67,-24.03 7.59,0.38 14.81,2.14 21.37,5.18 9.32,-6.04 14.42,-35.93 14.42,-35.93 l -40.5,-146.411" /><path
         id="path206"
         style="fill:#080604;fill-opacity:1;fill-rule:nonzero;stroke:none"
         d="m 1289.23,793.301 c 10.89,0.34 16.51,-5.781 16.51,-5.781 0,0 123.21,-30.961 152.55,-33.09 4.42,-0.27 9.59,0.492 15.32,1.98 32.94,7.961 85.24,35.32 122.48,-14.371 8.69,-11.578 18.11,-23.719 27.63,-35.859 38.23,-49.442 76.16,-100.91 59.87,-131.258 -7.69,-14.41 -15.94,-19.531 -22.38,-20.953 66.46,46.39 -383.97,182.953 -427.78,196.07 1.24,3.172 7.43,15.59 30.78,32.992 10.24,7.52 18.62,10.039 25.02,10.27" /><path
         id="path208"
         style="fill:#080604;fill-opacity:1;fill-rule:nonzero;stroke:none"
         d="m 1419.56,622.711 -142.99,57.898 -39.52,40.77 c 0,0 -1.43,3.609 -1.25,4.121 43.81,-13.121 488.81,-146.539 422.36,-192.941 -7.13,-1.661 -12.18,1.293 -12.18,1.293 l -226.42,88.859" /><path
         id="path210"
         style="fill:#778292;fill-opacity:1;fill-rule:nonzero;stroke:none"
         d="m 1376.71,929.262 c 11.16,16.976 22.8,34.386 34.46,51.59 16.21,23.948 32.46,47.388 47.61,68.678 28.63,39.89 53.76,71.79 68.11,83.22 17.32,13.89 35.8,16.82 52.43,14.66 23.08,-3.05 42.84,-15.67 52.2,-22.61 l -5.1,-6.27 c 0,0 -99.4,-231.382 -152.81,-362.12 -5.73,-1.488 -10.9,-2.25 -15.32,-1.98 -29.34,2.129 -152.55,33.09 -152.55,33.09 0,0 -5.62,6.121 -16.51,5.781 2.78,4.437 24.66,39.281 54.29,85.129 10.32,15.84 21.47,33.121 33.19,50.832" /><path
         id="path212"
         style="fill:#aab0c2;fill-opacity:1;fill-rule:nonzero;stroke:none"
         d="m 1414.74,823.512 c -5.94,-17.961 -19.81,-29.532 -30.99,-25.832 -11.18,3.691 -15.42,21.25 -9.49,39.211 5.94,17.968 19.82,29.531 30.99,25.839 11.18,-3.699 15.43,-21.25 9.49,-39.218" /><path
         id="path214"
         style="fill:#566576;fill-opacity:1;fill-rule:nonzero;stroke:none"
         d="m 1509.92,768.25 c 0,0 120.62,79.578 114.48,-62.922 0,0 -18.89,29.301 -43.21,49.024 -18.19,14.75 -21.68,15.628 -71.27,13.898" /></g></g></svg>