<?xml version="1.0" encoding="utf-8" standalone="no"?>
<!DOCTYPE svg PUBLIC "-//W3C//DTD SVG 1.1//EN"
  "http://www.w3.org/Graphics/SVG/1.1/DTD/svg11.dtd">
<svg xmlns:xlink="http://www.w3.org/1999/xlink" width="564.937031pt" height="386.44pt" viewBox="0 0 564.937031 386.44" xmlns="http://www.w3.org/2000/svg" version="1.1">
 <metadata>
  <rdf:RDF xmlns:dc="http://purl.org/dc/elements/1.1/" xmlns:cc="http://creativecommons.org/ns#" xmlns:rdf="http://www.w3.org/1999/02/22-rdf-syntax-ns#">
   <cc:Work>
    <dc:type rdf:resource="http://purl.org/dc/dcmitype/StillImage"/>
    <dc:date>2025-10-30T17:05:11.486446</dc:date>
    <dc:format>image/svg+xml</dc:format>
    <dc:creator>
     <cc:Agent>
      <dc:title>Matplotlib v3.10.0, https://matplotlib.org/</dc:title>
     </cc:Agent>
    </dc:creator>
   </cc:Work>
  </rdf:RDF>
 </metadata>
 <defs>
  <style type="text/css">*{stroke-linejoin: round; stroke-linecap: butt}</style>
 </defs>
 <g id="figure_1">
  <g id="patch_1">
   <path d="M 0 386.44 
L 564.937031 386.44 
L 564.937031 0 
L 0 0 
z
" style="fill: #ffffff"/>
  </g>
  <g id="axes_1">
   <g id="patch_2">
    <path d="M 51.577031 150.5 
L 276.217031 150.5 
L 276.217031 27.84 
L 51.577031 27.84 
z
" style="fill: #eaeaf2"/>
   </g>
   <g id="matplotlib.axis_1">
    <g id="xtick_1">
     <g id="line2d_1">
      <path d="M 76.315383 150.5 
L 76.315383 27.84 
" clip-path="url(#pfee1620323)" style="fill: none; stroke: #ffffff; stroke-linecap: round"/>
     </g>
     <g id="text_1">
      <!-- −5 -->
      <g style="fill: #262626" transform="translate(68.560383 168.36) scale(0.11 -0.11)">
       <defs>
        <path id="DejaVuSans-2212" d="M 678 2272 
L 4684 2272 
L 4684 1741 
L 678 1741 
L 678 2272 
z
" transform="scale(0.015625)"/>
        <path id="NotoSans-Regular-35" d="M 1760 2803 
Q 2464 2803 2880 2451 
Q 3296 2099 3296 1459 
Q 3296 749 2845 342 
Q 2394 -64 1587 -64 
Q 1235 -64 924 0 
Q 614 64 403 186 
L 403 717 
Q 634 576 963 496 
Q 1293 416 1594 416 
Q 2099 416 2409 656 
Q 2720 896 2720 1402 
Q 2720 1850 2445 2090 
Q 2170 2330 1574 2330 
Q 1395 2330 1164 2298 
Q 934 2266 794 2234 
L 512 2413 
L 685 4570 
L 2976 4570 
L 2976 4058 
L 1165 4058 
L 1056 2733 
Q 1165 2752 1350 2777 
Q 1536 2803 1760 2803 
z
" transform="scale(0.015625)"/>
       </defs>
       <use xlink:href="#DejaVuSans-2212"/>
       <use xlink:href="#NotoSans-Regular-35" transform="translate(83.789062 0)"/>
      </g>
     </g>
    </g>
    <g id="xtick_2">
     <g id="line2d_2">
      <path d="M 144.393364 150.5 
L 144.393364 27.84 
" clip-path="url(#pfee1620323)" style="fill: none; stroke: #ffffff; stroke-linecap: round"/>
     </g>
     <g id="text_2">
      <!-- 0 -->
      <g style="fill: #262626" transform="translate(141.247192 168.36) scale(0.11 -0.11)">
       <defs>
        <path id="NotoSans-Regular-30" d="M 3347 2291 
Q 3347 1555 3193 1027 
Q 3040 499 2707 217 
Q 2374 -64 1824 -64 
Q 1050 -64 682 560 
Q 314 1184 314 2291 
Q 314 3034 464 3558 
Q 614 4083 947 4361 
Q 1280 4640 1824 4640 
Q 2592 4640 2969 4022 
Q 3347 3405 3347 2291 
z
M 877 2291 
Q 877 1350 1091 883 
Q 1306 416 1824 416 
Q 2336 416 2557 880 
Q 2778 1344 2778 2291 
Q 2778 3226 2557 3693 
Q 2336 4160 1824 4160 
Q 1306 4160 1091 3693 
Q 877 3226 877 2291 
z
" transform="scale(0.015625)"/>
       </defs>
       <use xlink:href="#NotoSans-Regular-30"/>
      </g>
     </g>
    </g>
    <g id="xtick_3">
     <g id="line2d_3">
      <path d="M 212.471346 150.5 
L 212.471346 27.84 
" clip-path="url(#pfee1620323)" style="fill: none; stroke: #ffffff; stroke-linecap: round"/>
     </g>
     <g id="text_3">
      <!-- 5 -->
      <g style="fill: #262626" transform="translate(209.325174 168.36) scale(0.11 -0.11)">
       <use xlink:href="#NotoSans-Regular-35"/>
      </g>
     </g>
    </g>
    <g id="text_4">
     <!-- Value -->
     <g style="fill: #262626" transform="translate(148.291406 184.12) scale(0.12 -0.12)">
      <defs>
       <path id="NotoSans-Regular-56" d="M 3840 4570 
L 2208 0 
L 1632 0 
L 0 4570 
L 602 4570 
L 1632 1638 
Q 1734 1357 1804 1110 
Q 1875 864 1920 640 
Q 1965 864 2035 1113 
Q 2106 1363 2208 1651 
L 3232 4570 
L 3840 4570 
z
" transform="scale(0.015625)"/>
       <path id="NotoSans-Regular-61" d="M 1843 3488 
Q 2470 3488 2771 3213 
Q 3072 2938 3072 2336 
L 3072 0 
L 2662 0 
L 2554 486 
L 2528 486 
Q 2304 205 2057 70 
Q 1811 -64 1376 -64 
Q 909 -64 601 182 
Q 294 429 294 954 
Q 294 1466 697 1744 
Q 1101 2022 1939 2048 
L 2522 2067 
L 2522 2272 
Q 2522 2701 2336 2867 
Q 2150 3034 1811 3034 
Q 1542 3034 1299 2954 
Q 1056 2874 845 2771 
L 672 3194 
Q 896 3315 1203 3401 
Q 1510 3488 1843 3488 
z
M 2010 1658 
Q 1370 1632 1123 1453 
Q 877 1274 877 947 
Q 877 659 1053 524 
Q 1229 390 1504 390 
Q 1939 390 2227 630 
Q 2515 870 2515 1370 
L 2515 1677 
L 2010 1658 
z
" transform="scale(0.015625)"/>
       <path id="NotoSans-Regular-6c" d="M 1107 0 
L 544 0 
L 544 4864 
L 1107 4864 
L 1107 0 
z
" transform="scale(0.015625)"/>
       <path id="NotoSans-Regular-75" d="M 3411 3430 
L 3411 0 
L 2950 0 
L 2867 454 
L 2842 454 
Q 2675 186 2380 61 
Q 2086 -64 1754 -64 
Q 1133 -64 819 233 
Q 506 531 506 1184 
L 506 3430 
L 1075 3430 
L 1075 1222 
Q 1075 403 1837 403 
Q 2406 403 2627 723 
Q 2848 1043 2848 1645 
L 2848 3430 
L 3411 3430 
z
" transform="scale(0.015625)"/>
       <path id="NotoSans-Regular-65" d="M 1869 3494 
Q 2310 3494 2627 3302 
Q 2944 3110 3113 2761 
Q 3283 2413 3283 1946 
L 3283 1606 
L 934 1606 
Q 947 1024 1232 720 
Q 1517 416 2029 416 
Q 2355 416 2608 477 
Q 2861 538 3130 653 
L 3130 160 
Q 2867 45 2611 -9 
Q 2355 -64 2003 -64 
Q 1517 -64 1142 134 
Q 768 333 560 726 
Q 352 1120 352 1690 
Q 352 2253 541 2656 
Q 730 3059 1072 3276 
Q 1414 3494 1869 3494 
z
M 1862 3034 
Q 1459 3034 1225 2774 
Q 992 2515 947 2054 
L 2694 2054 
Q 2688 2490 2489 2762 
Q 2291 3034 1862 3034 
z
" transform="scale(0.015625)"/>
      </defs>
      <use xlink:href="#NotoSans-Regular-56"/>
      <use xlink:href="#NotoSans-Regular-61" transform="translate(59.999985 0)"/>
      <use xlink:href="#NotoSans-Regular-6c" transform="translate(116.099976 0)"/>
      <use xlink:href="#NotoSans-Regular-75" transform="translate(141.899963 0)"/>
      <use xlink:href="#NotoSans-Regular-65" transform="translate(203.699951 0)"/>
     </g>
    </g>
   </g>
   <g id="matplotlib.axis_2">
    <g id="ytick_1">
     <g id="line2d_4">
      <path d="M 51.577031 150.5 
L 276.217031 150.5 
" clip-path="url(#pfee1620323)" style="fill: none; stroke: #ffffff; stroke-linecap: round"/>
     </g>
     <g id="text_5">
      <!-- 0 -->
      <g style="fill: #262626" transform="translate(35.784688 154.68) scale(0.11 -0.11)">
       <use xlink:href="#NotoSans-Regular-30"/>
      </g>
     </g>
    </g>
    <g id="ytick_2">
     <g id="line2d_5">
      <path d="M 51.577031 115.524237 
L 276.217031 115.524237 
" clip-path="url(#pfee1620323)" style="fill: none; stroke: #ffffff; stroke-linecap: round"/>
     </g>
     <g id="text_6">
      <!-- 50 -->
      <g style="fill: #262626" transform="translate(29.492344 119.704237) scale(0.11 -0.11)">
       <use xlink:href="#NotoSans-Regular-35"/>
       <use xlink:href="#NotoSans-Regular-30" transform="translate(57.199997 0)"/>
      </g>
     </g>
    </g>
    <g id="ytick_3">
     <g id="line2d_6">
      <path d="M 51.577031 80.548474 
L 276.217031 80.548474 
" clip-path="url(#pfee1620323)" style="fill: none; stroke: #ffffff; stroke-linecap: round"/>
     </g>
     <g id="text_7">
      <!-- 100 -->
      <g style="fill: #262626" transform="translate(23.2 84.728474) scale(0.11 -0.11)">
       <defs>
        <path id="NotoSans-Regular-31" d="M 2272 0 
L 1722 0 
L 1722 3194 
Q 1722 3469 1728 3635 
Q 1734 3802 1747 3981 
Q 1645 3878 1561 3808 
Q 1478 3738 1350 3629 
L 864 3232 
L 570 3610 
L 1805 4570 
L 2272 4570 
L 2272 0 
z
" transform="scale(0.015625)"/>
       </defs>
       <use xlink:href="#NotoSans-Regular-31"/>
       <use xlink:href="#NotoSans-Regular-30" transform="translate(57.199997 0)"/>
       <use xlink:href="#NotoSans-Regular-30" transform="translate(114.399994 0)"/>
      </g>
     </g>
    </g>
    <g id="ytick_4">
     <g id="line2d_7">
      <path d="M 51.577031 45.572712 
L 276.217031 45.572712 
" clip-path="url(#pfee1620323)" style="fill: none; stroke: #ffffff; stroke-linecap: round"/>
     </g>
     <g id="text_8">
      <!-- 150 -->
      <g style="fill: #262626" transform="translate(23.2 49.752712) scale(0.11 -0.11)">
       <use xlink:href="#NotoSans-Regular-31"/>
       <use xlink:href="#NotoSans-Regular-35" transform="translate(57.199997 0)"/>
       <use xlink:href="#NotoSans-Regular-30" transform="translate(114.399994 0)"/>
      </g>
     </g>
    </g>
    <g id="text_9">
     <!-- Frequency -->
     <g style="fill: #262626" transform="translate(16.32 118.576562) rotate(-90) scale(0.12 -0.12)">
      <defs>
       <path id="NotoSans-Regular-46" d="M 1197 0 
L 621 0 
L 621 4570 
L 3174 4570 
L 3174 4064 
L 1197 4064 
L 1197 2445 
L 3053 2445 
L 3053 1939 
L 1197 1939 
L 1197 0 
z
" transform="scale(0.015625)"/>
       <path id="NotoSans-Regular-72" d="M 2144 3494 
Q 2240 3494 2352 3484 
Q 2464 3475 2547 3456 
L 2477 2938 
Q 2394 2957 2294 2969 
Q 2195 2982 2106 2982 
Q 1843 2982 1612 2838 
Q 1382 2694 1244 2435 
Q 1107 2176 1107 1830 
L 1107 0 
L 544 0 
L 544 3430 
L 1005 3430 
L 1069 2803 
L 1094 2803 
Q 1261 3085 1523 3289 
Q 1786 3494 2144 3494 
z
" transform="scale(0.015625)"/>
       <path id="NotoSans-Regular-71" d="M 2829 -70 
Q 2829 45 2835 198 
Q 2842 352 2861 461 
L 2822 461 
Q 2675 243 2416 89 
Q 2157 -64 1747 -64 
Q 1126 -64 739 381 
Q 352 826 352 1709 
Q 352 2592 745 3043 
Q 1139 3494 1766 3494 
Q 2170 3494 2426 3340 
Q 2682 3187 2835 2963 
L 2861 2963 
L 2944 3430 
L 3392 3430 
L 3392 -1536 
L 2829 -1536 
L 2829 -70 
z
M 1856 403 
Q 2387 403 2608 694 
Q 2829 986 2835 1587 
L 2835 1702 
Q 2835 2355 2617 2691 
Q 2400 3027 1843 3027 
Q 1382 3027 1158 2665 
Q 934 2304 934 1696 
Q 934 1088 1161 745 
Q 1389 403 1856 403 
z
" transform="scale(0.015625)"/>
       <path id="NotoSans-Regular-6e" d="M 2195 3494 
Q 2810 3494 3123 3196 
Q 3437 2899 3437 2234 
L 3437 0 
L 2880 0 
L 2880 2195 
Q 2880 3021 2112 3021 
Q 1542 3021 1324 2701 
Q 1107 2381 1107 1779 
L 1107 0 
L 544 0 
L 544 3430 
L 998 3430 
L 1082 2963 
L 1114 2963 
Q 1280 3232 1574 3363 
Q 1869 3494 2195 3494 
z
" transform="scale(0.015625)"/>
       <path id="NotoSans-Regular-63" d="M 1920 -64 
Q 1466 -64 1110 121 
Q 755 307 553 697 
Q 352 1088 352 1696 
Q 352 2330 563 2726 
Q 774 3123 1136 3308 
Q 1498 3494 1958 3494 
Q 2221 3494 2464 3440 
Q 2707 3386 2861 3309 
L 2688 2842 
Q 2534 2899 2329 2950 
Q 2125 3002 1946 3002 
Q 934 3002 934 1702 
Q 934 1082 1180 752 
Q 1427 422 1914 422 
Q 2195 422 2409 480 
Q 2624 538 2803 621 
L 2803 122 
Q 2630 32 2422 -16 
Q 2214 -64 1920 -64 
z
" transform="scale(0.015625)"/>
       <path id="NotoSans-Regular-79" d="M 6 3430 
L 608 3430 
L 1350 1478 
Q 1446 1222 1523 988 
Q 1600 755 1638 544 
L 1664 544 
Q 1702 704 1785 963 
Q 1869 1222 1958 1485 
L 2656 3430 
L 3264 3430 
L 1786 -474 
Q 1606 -960 1321 -1248 
Q 1037 -1536 538 -1536 
Q 384 -1536 269 -1520 
Q 154 -1504 70 -1485 
L 70 -1037 
Q 141 -1050 240 -1062 
Q 339 -1075 448 -1075 
Q 742 -1075 924 -908 
Q 1107 -742 1210 -467 
L 1389 -13 
L 6 3430 
z
" transform="scale(0.015625)"/>
      </defs>
      <use xlink:href="#NotoSans-Regular-46"/>
      <use xlink:href="#NotoSans-Regular-72" transform="translate(51.899994 0)"/>
      <use xlink:href="#NotoSans-Regular-65" transform="translate(93.199982 0)"/>
      <use xlink:href="#NotoSans-Regular-71" transform="translate(149.599976 0)"/>
      <use xlink:href="#NotoSans-Regular-75" transform="translate(211.09996 0)"/>
      <use xlink:href="#NotoSans-Regular-65" transform="translate(272.899948 0)"/>
      <use xlink:href="#NotoSans-Regular-6e" transform="translate(329.299942 0)"/>
      <use xlink:href="#NotoSans-Regular-63" transform="translate(391.09993 0)"/>
      <use xlink:href="#NotoSans-Regular-79" transform="translate(439.099915 0)"/>
     </g>
    </g>
   </g>
   <g id="patch_3">
    <path d="M 61.78794 150.5 
L 66.326122 150.5 
L 66.326122 149.800485 
L 61.78794 149.800485 
z
" clip-path="url(#pfee1620323)" style="fill: #2471a3; stroke: #000000; stroke-linejoin: miter"/>
   </g>
   <g id="patch_4">
    <path d="M 66.326122 150.5 
L 70.864304 150.5 
L 70.864304 150.5 
L 66.326122 150.5 
z
" clip-path="url(#pfee1620323)" style="fill: #2471a3; stroke: #000000; stroke-linejoin: miter"/>
   </g>
   <g id="patch_5">
    <path d="M 70.864304 150.5 
L 75.402486 150.5 
L 75.402486 149.800485 
L 70.864304 149.800485 
z
" clip-path="url(#pfee1620323)" style="fill: #2471a3; stroke: #000000; stroke-linejoin: miter"/>
   </g>
   <g id="patch_6">
    <path d="M 75.402486 150.5 
L 79.940668 150.5 
L 79.940668 149.800485 
L 75.402486 149.800485 
z
" clip-path="url(#pfee1620323)" style="fill: #2471a3; stroke: #000000; stroke-linejoin: miter"/>
   </g>
   <g id="patch_7">
    <path d="M 79.940668 150.5 
L 84.478849 150.5 
L 84.478849 149.800485 
L 79.940668 149.800485 
z
" clip-path="url(#pfee1620323)" style="fill: #2471a3; stroke: #000000; stroke-linejoin: miter"/>
   </g>
   <g id="patch_8">
    <path d="M 84.478849 150.5 
L 89.017031 150.5 
L 89.017031 149.800485 
L 84.478849 149.800485 
z
" clip-path="url(#pfee1620323)" style="fill: #2471a3; stroke: #000000; stroke-linejoin: miter"/>
   </g>
   <g id="patch_9">
    <path d="M 89.017031 150.5 
L 93.555213 150.5 
L 93.555213 149.800485 
L 89.017031 149.800485 
z
" clip-path="url(#pfee1620323)" style="fill: #2471a3; stroke: #000000; stroke-linejoin: miter"/>
   </g>
   <g id="patch_10">
    <path d="M 93.555213 150.5 
L 98.093395 150.5 
L 98.093395 148.401454 
L 93.555213 148.401454 
z
" clip-path="url(#pfee1620323)" style="fill: #2471a3; stroke: #000000; stroke-linejoin: miter"/>
   </g>
   <g id="patch_11">
    <path d="M 98.093395 150.5 
L 102.631577 150.5 
L 102.631577 145.603393 
L 98.093395 145.603393 
z
" clip-path="url(#pfee1620323)" style="fill: #2471a3; stroke: #000000; stroke-linejoin: miter"/>
   </g>
   <g id="patch_12">
    <path d="M 102.631577 150.5 
L 107.169759 150.5 
L 107.169759 146.302908 
L 102.631577 146.302908 
z
" clip-path="url(#pfee1620323)" style="fill: #2471a3; stroke: #000000; stroke-linejoin: miter"/>
   </g>
   <g id="patch_13">
    <path d="M 107.169759 150.5 
L 111.70794 150.5 
L 111.70794 143.504847 
L 107.169759 143.504847 
z
" clip-path="url(#pfee1620323)" style="fill: #2471a3; stroke: #000000; stroke-linejoin: miter"/>
   </g>
   <g id="patch_14">
    <path d="M 111.70794 150.5 
L 116.246122 150.5 
L 116.246122 136.509695 
L 111.70794 136.509695 
z
" clip-path="url(#pfee1620323)" style="fill: #2471a3; stroke: #000000; stroke-linejoin: miter"/>
   </g>
   <g id="patch_15">
    <path d="M 116.246122 150.5 
L 120.784304 150.5 
L 120.784304 133.711634 
L 116.246122 133.711634 
z
" clip-path="url(#pfee1620323)" style="fill: #2471a3; stroke: #000000; stroke-linejoin: miter"/>
   </g>
   <g id="patch_16">
    <path d="M 120.784304 150.5 
L 125.322486 150.5 
L 125.322486 129.514542 
L 120.784304 129.514542 
z
" clip-path="url(#pfee1620323)" style="fill: #2471a3; stroke: #000000; stroke-linejoin: miter"/>
   </g>
   <g id="patch_17">
    <path d="M 125.322486 150.5 
L 129.860668 150.5 
L 129.860668 128.115512 
L 125.322486 128.115512 
z
" clip-path="url(#pfee1620323)" style="fill: #2471a3; stroke: #000000; stroke-linejoin: miter"/>
   </g>
   <g id="patch_18">
    <path d="M 129.860668 150.5 
L 134.398849 150.5 
L 134.398849 111.327146 
L 129.860668 111.327146 
z
" clip-path="url(#pfee1620323)" style="fill: #2471a3; stroke: #000000; stroke-linejoin: miter"/>
   </g>
   <g id="patch_19">
    <path d="M 134.398849 150.5 
L 138.937031 150.5 
L 138.937031 92.440234 
L 134.398849 92.440234 
z
" clip-path="url(#pfee1620323)" style="fill: #2471a3; stroke: #000000; stroke-linejoin: miter"/>
   </g>
   <g id="patch_20">
    <path d="M 138.937031 150.5 
L 143.475213 150.5 
L 143.475213 95.238295 
L 138.937031 95.238295 
z
" clip-path="url(#pfee1620323)" style="fill: #2471a3; stroke: #000000; stroke-linejoin: miter"/>
   </g>
   <g id="patch_21">
    <path d="M 143.475213 150.5 
L 148.013395 150.5 
L 148.013395 81.947505 
L 143.475213 81.947505 
z
" clip-path="url(#pfee1620323)" style="fill: #2471a3; stroke: #000000; stroke-linejoin: miter"/>
   </g>
   <g id="patch_22">
    <path d="M 148.013395 150.5 
L 152.551577 150.5 
L 152.551577 48.370773 
L 148.013395 48.370773 
z
" clip-path="url(#pfee1620323)" style="fill: #2471a3; stroke: #000000; stroke-linejoin: miter"/>
   </g>
   <g id="patch_23">
    <path d="M 152.551577 150.5 
L 157.089759 150.5 
L 157.089759 59.563017 
L 152.551577 59.563017 
z
" clip-path="url(#pfee1620323)" style="fill: #2471a3; stroke: #000000; stroke-linejoin: miter"/>
   </g>
   <g id="patch_24">
    <path d="M 157.089759 150.5 
L 161.62794 150.5 
L 161.62794 49.769803 
L 157.089759 49.769803 
z
" clip-path="url(#pfee1620323)" style="fill: #2471a3; stroke: #000000; stroke-linejoin: miter"/>
   </g>
   <g id="patch_25">
    <path d="M 161.62794 150.5 
L 166.166122 150.5 
L 166.166122 56.764956 
L 161.62794 56.764956 
z
" clip-path="url(#pfee1620323)" style="fill: #2471a3; stroke: #000000; stroke-linejoin: miter"/>
   </g>
   <g id="patch_26">
    <path d="M 166.166122 150.5 
L 170.704304 150.5 
L 170.704304 44.173681 
L 166.166122 44.173681 
z
" clip-path="url(#pfee1620323)" style="fill: #2471a3; stroke: #000000; stroke-linejoin: miter"/>
   </g>
   <g id="patch_27">
    <path d="M 170.704304 150.5 
L 175.242486 150.5 
L 175.242486 37.878044 
L 170.704304 37.878044 
z
" clip-path="url(#pfee1620323)" style="fill: #2471a3; stroke: #000000; stroke-linejoin: miter"/>
   </g>
   <g id="patch_28">
    <path d="M 175.242486 150.5 
L 179.780668 150.5 
L 179.780668 33.680952 
L 175.242486 33.680952 
z
" clip-path="url(#pfee1620323)" style="fill: #2471a3; stroke: #000000; stroke-linejoin: miter"/>
   </g>
   <g id="patch_29">
    <path d="M 179.780668 150.5 
L 184.318849 150.5 
L 184.318849 45.572712 
L 179.780668 45.572712 
z
" clip-path="url(#pfee1620323)" style="fill: #2471a3; stroke: #000000; stroke-linejoin: miter"/>
   </g>
   <g id="patch_30">
    <path d="M 184.318849 150.5 
L 188.857031 150.5 
L 188.857031 76.351383 
L 184.318849 76.351383 
z
" clip-path="url(#pfee1620323)" style="fill: #2471a3; stroke: #000000; stroke-linejoin: miter"/>
   </g>
   <g id="patch_31">
    <path d="M 188.857031 150.5 
L 193.395213 150.5 
L 193.395213 53.26738 
L 188.857031 53.26738 
z
" clip-path="url(#pfee1620323)" style="fill: #2471a3; stroke: #000000; stroke-linejoin: miter"/>
   </g>
   <g id="patch_32">
    <path d="M 193.395213 150.5 
L 197.933395 150.5 
L 197.933395 64.459624 
L 193.395213 64.459624 
z
" clip-path="url(#pfee1620323)" style="fill: #2471a3; stroke: #000000; stroke-linejoin: miter"/>
   </g>
   <g id="patch_33">
    <path d="M 197.933395 150.5 
L 202.471577 150.5 
L 202.471577 88.243142 
L 197.933395 88.243142 
z
" clip-path="url(#pfee1620323)" style="fill: #2471a3; stroke: #000000; stroke-linejoin: miter"/>
   </g>
   <g id="patch_34">
    <path d="M 202.471577 150.5 
L 207.009759 150.5 
L 207.009759 105.731024 
L 202.471577 105.731024 
z
" clip-path="url(#pfee1620323)" style="fill: #2471a3; stroke: #000000; stroke-linejoin: miter"/>
   </g>
   <g id="patch_35">
    <path d="M 207.009759 150.5 
L 211.54794 150.5 
L 211.54794 114.824722 
L 207.009759 114.824722 
z
" clip-path="url(#pfee1620323)" style="fill: #2471a3; stroke: #000000; stroke-linejoin: miter"/>
   </g>
   <g id="patch_36">
    <path d="M 211.54794 150.5 
L 216.086122 150.5 
L 216.086122 112.726176 
L 211.54794 112.726176 
z
" clip-path="url(#pfee1620323)" style="fill: #2471a3; stroke: #000000; stroke-linejoin: miter"/>
   </g>
   <g id="patch_37">
    <path d="M 216.086122 150.5 
L 220.624304 150.5 
L 220.624304 126.716481 
L 216.086122 126.716481 
z
" clip-path="url(#pfee1620323)" style="fill: #2471a3; stroke: #000000; stroke-linejoin: miter"/>
   </g>
   <g id="patch_38">
    <path d="M 220.624304 150.5 
L 225.162486 150.5 
L 225.162486 133.012119 
L 220.624304 133.012119 
z
" clip-path="url(#pfee1620323)" style="fill: #2471a3; stroke: #000000; stroke-linejoin: miter"/>
   </g>
   <g id="patch_39">
    <path d="M 225.162486 150.5 
L 229.700668 150.5 
L 229.700668 133.711634 
L 225.162486 133.711634 
z
" clip-path="url(#pfee1620323)" style="fill: #2471a3; stroke: #000000; stroke-linejoin: miter"/>
   </g>
   <g id="patch_40">
    <path d="M 229.700668 150.5 
L 234.238849 150.5 
L 234.238849 144.903878 
L 229.700668 144.903878 
z
" clip-path="url(#pfee1620323)" style="fill: #2471a3; stroke: #000000; stroke-linejoin: miter"/>
   </g>
   <g id="patch_41">
    <path d="M 234.238849 150.5 
L 238.777031 150.5 
L 238.777031 146.302908 
L 234.238849 146.302908 
z
" clip-path="url(#pfee1620323)" style="fill: #2471a3; stroke: #000000; stroke-linejoin: miter"/>
   </g>
   <g id="patch_42">
    <path d="M 238.777031 150.5 
L 243.315213 150.5 
L 243.315213 144.903878 
L 238.777031 144.903878 
z
" clip-path="url(#pfee1620323)" style="fill: #2471a3; stroke: #000000; stroke-linejoin: miter"/>
   </g>
   <g id="patch_43">
    <path d="M 243.315213 150.5 
L 247.853395 150.5 
L 247.853395 145.603393 
L 243.315213 145.603393 
z
" clip-path="url(#pfee1620323)" style="fill: #2471a3; stroke: #000000; stroke-linejoin: miter"/>
   </g>
   <g id="patch_44">
    <path d="M 247.853395 150.5 
L 252.391577 150.5 
L 252.391577 149.800485 
L 247.853395 149.800485 
z
" clip-path="url(#pfee1620323)" style="fill: #2471a3; stroke: #000000; stroke-linejoin: miter"/>
   </g>
   <g id="patch_45">
    <path d="M 252.391577 150.5 
L 256.929759 150.5 
L 256.929759 149.800485 
L 252.391577 149.800485 
z
" clip-path="url(#pfee1620323)" style="fill: #2471a3; stroke: #000000; stroke-linejoin: miter"/>
   </g>
   <g id="patch_46">
    <path d="M 256.929759 150.5 
L 261.46794 150.5 
L 261.46794 149.800485 
L 256.929759 149.800485 
z
" clip-path="url(#pfee1620323)" style="fill: #2471a3; stroke: #000000; stroke-linejoin: miter"/>
   </g>
   <g id="patch_47">
    <path d="M 261.46794 150.5 
L 266.006122 150.5 
L 266.006122 149.800485 
L 261.46794 149.800485 
z
" clip-path="url(#pfee1620323)" style="fill: #2471a3; stroke: #000000; stroke-linejoin: miter"/>
   </g>
   <g id="patch_48">
    <path d="M 51.577031 150.5 
L 51.577031 27.84 
" style="fill: none; stroke: #ffffff; stroke-width: 1.25; stroke-linejoin: miter; stroke-linecap: square"/>
   </g>
   <g id="patch_49">
    <path d="M 276.217031 150.5 
L 276.217031 27.84 
" style="fill: none; stroke: #ffffff; stroke-width: 1.25; stroke-linejoin: miter; stroke-linecap: square"/>
   </g>
   <g id="patch_50">
    <path d="M 51.577031 150.5 
L 276.217031 150.5 
" style="fill: none; stroke: #ffffff; stroke-width: 1.25; stroke-linejoin: miter; stroke-linecap: square"/>
   </g>
   <g id="patch_51">
    <path d="M 51.577031 27.84 
L 276.217031 27.84 
" style="fill: none; stroke: #ffffff; stroke-width: 1.25; stroke-linejoin: miter; stroke-linecap: square"/>
   </g>
   <g id="text_10">
    <!-- Original Distribution -->
    <g style="fill: #262626" transform="translate(96.72875 17.84) scale(0.14 -0.14)">
     <defs>
      <path id="NotoSans-Regular-4f" d="M 4608 2291 
Q 4608 1581 4368 1053 
Q 4128 525 3661 230 
Q 3194 -64 2502 -64 
Q 1792 -64 1321 230 
Q 851 525 620 1056 
Q 390 1587 390 2298 
Q 390 3002 620 3526 
Q 851 4051 1321 4345 
Q 1792 4640 2509 4640 
Q 3194 4640 3661 4349 
Q 4128 4058 4368 3530 
Q 4608 3002 4608 2291 
z
M 998 2291 
Q 998 1427 1363 931 
Q 1728 435 2502 435 
Q 3283 435 3641 931 
Q 4000 1427 4000 2291 
Q 4000 3155 3641 3644 
Q 3283 4134 2509 4134 
Q 1734 4134 1366 3644 
Q 998 3155 998 2291 
z
" transform="scale(0.015625)"/>
      <path id="NotoSans-Regular-69" d="M 832 4717 
Q 960 4717 1059 4630 
Q 1158 4544 1158 4358 
Q 1158 4179 1059 4089 
Q 960 4000 832 4000 
Q 691 4000 595 4089 
Q 499 4179 499 4358 
Q 499 4544 595 4630 
Q 691 4717 832 4717 
z
M 1107 3430 
L 1107 0 
L 544 0 
L 544 3430 
L 1107 3430 
z
" transform="scale(0.015625)"/>
      <path id="NotoSans-Regular-67" d="M 1760 3494 
Q 2099 3494 2371 3366 
Q 2643 3238 2835 2976 
L 2867 2976 
L 2944 3430 
L 3392 3430 
L 3392 -58 
Q 3392 -794 3017 -1165 
Q 2643 -1536 1856 -1536 
Q 1101 -1536 621 -1318 
L 621 -800 
Q 1126 -1069 1888 -1069 
Q 2330 -1069 2582 -809 
Q 2835 -550 2835 -102 
L 2835 32 
Q 2835 109 2841 253 
Q 2848 397 2854 454 
L 2829 454 
Q 2483 -64 1766 -64 
Q 1101 -64 726 403 
Q 352 870 352 1709 
Q 352 2528 726 3011 
Q 1101 3494 1760 3494 
z
M 1837 3021 
Q 1408 3021 1171 2678 
Q 934 2336 934 1702 
Q 934 1069 1168 733 
Q 1402 397 1850 397 
Q 2368 397 2605 675 
Q 2842 954 2842 1574 
L 2842 1709 
Q 2842 2413 2598 2717 
Q 2355 3021 1837 3021 
z
" transform="scale(0.015625)"/>
      <path id="NotoSans-Regular-20" transform="scale(0.015625)"/>
      <path id="NotoSans-Regular-44" d="M 4282 2330 
Q 4282 1171 3651 585 
Q 3021 0 1894 0 
L 621 0 
L 621 4570 
L 2029 4570 
Q 2720 4570 3225 4314 
Q 3731 4058 4006 3562 
Q 4282 3066 4282 2330 
z
M 3674 2310 
Q 3674 3226 3222 3651 
Q 2771 4077 1946 4077 
L 1197 4077 
L 1197 493 
L 1818 493 
Q 3674 493 3674 2310 
z
" transform="scale(0.015625)"/>
      <path id="NotoSans-Regular-73" d="M 2778 947 
Q 2778 448 2406 192 
Q 2035 -64 1408 -64 
Q 1050 -64 790 -6 
Q 531 51 333 154 
L 333 666 
Q 538 563 829 476 
Q 1120 390 1421 390 
Q 1850 390 2042 528 
Q 2234 666 2234 896 
Q 2234 1024 2163 1126 
Q 2093 1229 1910 1331 
Q 1728 1434 1389 1562 
Q 1056 1690 819 1818 
Q 582 1946 454 2125 
Q 326 2304 326 2586 
Q 326 3021 681 3257 
Q 1037 3494 1613 3494 
Q 1926 3494 2198 3433 
Q 2470 3373 2707 3264 
L 2515 2816 
Q 2298 2906 2061 2970 
Q 1824 3034 1574 3034 
Q 1229 3034 1046 2922 
Q 864 2810 864 2618 
Q 864 2477 947 2377 
Q 1030 2278 1225 2185 
Q 1421 2093 1747 1965 
Q 2074 1843 2304 1715 
Q 2534 1587 2656 1404 
Q 2778 1222 2778 947 
z
" transform="scale(0.015625)"/>
      <path id="NotoSans-Regular-74" d="M 1690 397 
Q 1818 397 1952 419 
Q 2086 442 2170 467 
L 2170 38 
Q 2080 -6 1913 -35 
Q 1747 -64 1594 -64 
Q 1325 -64 1097 29 
Q 870 122 729 352 
Q 589 582 589 998 
L 589 2995 
L 102 2995 
L 102 3264 
L 595 3488 
L 819 4218 
L 1152 4218 
L 1152 3430 
L 2144 3430 
L 2144 2995 
L 1152 2995 
L 1152 1011 
Q 1152 698 1302 547 
Q 1453 397 1690 397 
z
" transform="scale(0.015625)"/>
      <path id="NotoSans-Regular-62" d="M 1107 3680 
Q 1107 3462 1097 3273 
Q 1088 3085 1075 2976 
L 1107 2976 
Q 1254 3194 1510 3341 
Q 1766 3488 2170 3488 
Q 2810 3488 3197 3043 
Q 3584 2598 3584 1715 
Q 3584 832 3193 384 
Q 2803 -64 2170 -64 
Q 1766 -64 1510 83 
Q 1254 230 1107 435 
L 1062 435 
L 947 0 
L 544 0 
L 544 4864 
L 1107 4864 
L 1107 3680 
z
M 2074 3021 
Q 1530 3021 1318 2707 
Q 1107 2394 1107 1734 
L 1107 1709 
Q 1107 1075 1315 739 
Q 1523 403 2086 403 
Q 2547 403 2774 742 
Q 3002 1082 3002 1722 
Q 3002 3021 2074 3021 
z
" transform="scale(0.015625)"/>
      <path id="NotoSans-Regular-6f" d="M 3526 1722 
Q 3526 870 3094 403 
Q 2662 -64 1926 -64 
Q 1472 -64 1117 144 
Q 762 352 557 752 
Q 352 1152 352 1722 
Q 352 2573 781 3033 
Q 1210 3494 1946 3494 
Q 2413 3494 2768 3286 
Q 3123 3078 3324 2684 
Q 3526 2291 3526 1722 
z
M 934 1722 
Q 934 1114 1174 758 
Q 1414 403 1939 403 
Q 2458 403 2701 758 
Q 2944 1114 2944 1722 
Q 2944 2330 2701 2675 
Q 2458 3021 1933 3021 
Q 1408 3021 1171 2675 
Q 934 2330 934 1722 
z
" transform="scale(0.015625)"/>
     </defs>
     <use xlink:href="#NotoSans-Regular-4f"/>
     <use xlink:href="#NotoSans-Regular-72" transform="translate(78.099991 0)"/>
     <use xlink:href="#NotoSans-Regular-69" transform="translate(119.399979 0)"/>
     <use xlink:href="#NotoSans-Regular-67" transform="translate(145.199966 0)"/>
     <use xlink:href="#NotoSans-Regular-69" transform="translate(206.699951 0)"/>
     <use xlink:href="#NotoSans-Regular-6e" transform="translate(232.499939 0)"/>
     <use xlink:href="#NotoSans-Regular-61" transform="translate(294.299927 0)"/>
     <use xlink:href="#NotoSans-Regular-6c" transform="translate(350.399918 0)"/>
     <use xlink:href="#NotoSans-Regular-20" transform="translate(376.199905 0)"/>
     <use xlink:href="#NotoSans-Regular-44" transform="translate(402.19989 0)"/>
     <use xlink:href="#NotoSans-Regular-69" transform="translate(475.199875 0)"/>
     <use xlink:href="#NotoSans-Regular-73" transform="translate(500.999863 0)"/>
     <use xlink:href="#NotoSans-Regular-74" transform="translate(548.899857 0)"/>
     <use xlink:href="#NotoSans-Regular-72" transform="translate(584.999847 0)"/>
     <use xlink:href="#NotoSans-Regular-69" transform="translate(626.299835 0)"/>
     <use xlink:href="#NotoSans-Regular-62" transform="translate(652.099823 0)"/>
     <use xlink:href="#NotoSans-Regular-75" transform="translate(713.599808 0)"/>
     <use xlink:href="#NotoSans-Regular-74" transform="translate(775.399796 0)"/>
     <use xlink:href="#NotoSans-Regular-69" transform="translate(811.499786 0)"/>
     <use xlink:href="#NotoSans-Regular-6f" transform="translate(837.299774 0)"/>
     <use xlink:href="#NotoSans-Regular-6e" transform="translate(897.799759 0)"/>
    </g>
   </g>
  </g>
  <g id="axes_2">
   <g id="patch_52">
    <path d="M 333.097031 150.5 
L 557.737031 150.5 
L 557.737031 27.84 
L 333.097031 27.84 
z
" style="fill: #eaeaf2"/>
   </g>
   <g id="matplotlib.axis_3">
    <g id="xtick_4">
     <g id="line2d_8">
      <path d="M 357.835383 150.5 
L 357.835383 27.84 
" clip-path="url(#p464bd71f65)" style="fill: none; stroke: #ffffff; stroke-linecap: round"/>
     </g>
     <g id="text_11">
      <!-- −5 -->
      <g style="fill: #262626" transform="translate(350.080383 168.36) scale(0.11 -0.11)">
       <use xlink:href="#DejaVuSans-2212"/>
       <use xlink:href="#NotoSans-Regular-35" transform="translate(83.789062 0)"/>
      </g>
     </g>
    </g>
    <g id="xtick_5">
     <g id="line2d_9">
      <path d="M 425.913364 150.5 
L 425.913364 27.84 
" clip-path="url(#p464bd71f65)" style="fill: none; stroke: #ffffff; stroke-linecap: round"/>
     </g>
     <g id="text_12">
      <!-- 0 -->
      <g style="fill: #262626" transform="translate(422.767192 168.36) scale(0.11 -0.11)">
       <use xlink:href="#NotoSans-Regular-30"/>
      </g>
     </g>
    </g>
    <g id="xtick_6">
     <g id="line2d_10">
      <path d="M 493.991346 150.5 
L 493.991346 27.84 
" clip-path="url(#p464bd71f65)" style="fill: none; stroke: #ffffff; stroke-linecap: round"/>
     </g>
     <g id="text_13">
      <!-- 5 -->
      <g style="fill: #262626" transform="translate(490.845174 168.36) scale(0.11 -0.11)">
       <use xlink:href="#NotoSans-Regular-35"/>
      </g>
     </g>
    </g>
    <g id="text_14">
     <!-- Value -->
     <g style="fill: #262626" transform="translate(429.811406 184.12) scale(0.12 -0.12)">
      <use xlink:href="#NotoSans-Regular-56"/>
      <use xlink:href="#NotoSans-Regular-61" transform="translate(59.999985 0)"/>
      <use xlink:href="#NotoSans-Regular-6c" transform="translate(116.099976 0)"/>
      <use xlink:href="#NotoSans-Regular-75" transform="translate(141.899963 0)"/>
      <use xlink:href="#NotoSans-Regular-65" transform="translate(203.699951 0)"/>
     </g>
    </g>
   </g>
   <g id="matplotlib.axis_4">
    <g id="ytick_5">
     <g id="line2d_11">
      <path d="M 333.097031 150.5 
L 557.737031 150.5 
" clip-path="url(#p464bd71f65)" style="fill: none; stroke: #ffffff; stroke-linecap: round"/>
     </g>
     <g id="text_15">
      <!-- 0 -->
      <g style="fill: #262626" transform="translate(317.304688 154.68) scale(0.11 -0.11)">
       <use xlink:href="#NotoSans-Regular-30"/>
      </g>
     </g>
    </g>
    <g id="ytick_6">
     <g id="line2d_12">
      <path d="M 333.097031 109.654179 
L 557.737031 109.654179 
" clip-path="url(#p464bd71f65)" style="fill: none; stroke: #ffffff; stroke-linecap: round"/>
     </g>
     <g id="text_16">
      <!-- 200 -->
      <g style="fill: #262626" transform="translate(304.72 113.834179) scale(0.11 -0.11)">
       <defs>
        <path id="NotoSans-Regular-32" d="M 3328 0 
L 307 0 
L 307 467 
L 1504 1677 
Q 1850 2022 2086 2291 
Q 2323 2560 2444 2819 
Q 2566 3078 2566 3386 
Q 2566 3763 2342 3958 
Q 2118 4154 1760 4154 
Q 1427 4154 1174 4038 
Q 922 3923 659 3718 
L 358 4096 
Q 627 4320 976 4477 
Q 1325 4634 1760 4634 
Q 2400 4634 2771 4310 
Q 3142 3987 3142 3418 
Q 3142 3059 2995 2745 
Q 2848 2432 2585 2128 
Q 2323 1824 1971 1478 
L 1018 538 
L 1018 512 
L 3328 512 
L 3328 0 
z
" transform="scale(0.015625)"/>
       </defs>
       <use xlink:href="#NotoSans-Regular-32"/>
       <use xlink:href="#NotoSans-Regular-30" transform="translate(57.199997 0)"/>
       <use xlink:href="#NotoSans-Regular-30" transform="translate(114.399994 0)"/>
      </g>
     </g>
    </g>
    <g id="ytick_7">
     <g id="line2d_13">
      <path d="M 333.097031 68.808358 
L 557.737031 68.808358 
" clip-path="url(#p464bd71f65)" style="fill: none; stroke: #ffffff; stroke-linecap: round"/>
     </g>
     <g id="text_17">
      <!-- 400 -->
      <g style="fill: #262626" transform="translate(304.72 72.988358) scale(0.11 -0.11)">
       <defs>
        <path id="NotoSans-Regular-34" d="M 3533 1037 
L 2867 1037 
L 2867 0 
L 2323 0 
L 2323 1037 
L 134 1037 
L 134 1517 
L 2285 4595 
L 2867 4595 
L 2867 1542 
L 3533 1542 
L 3533 1037 
z
M 2323 2982 
Q 2323 3315 2336 3548 
Q 2349 3782 2355 3994 
L 2330 3994 
Q 2278 3872 2201 3731 
Q 2125 3590 2054 3494 
L 685 1542 
L 2323 1542 
L 2323 2982 
z
" transform="scale(0.015625)"/>
       </defs>
       <use xlink:href="#NotoSans-Regular-34"/>
       <use xlink:href="#NotoSans-Regular-30" transform="translate(57.199997 0)"/>
       <use xlink:href="#NotoSans-Regular-30" transform="translate(114.399994 0)"/>
      </g>
     </g>
    </g>
    <g id="ytick_8">
     <g id="line2d_14">
      <path d="M 333.097031 27.962537 
L 557.737031 27.962537 
" clip-path="url(#p464bd71f65)" style="fill: none; stroke: #ffffff; stroke-linecap: round"/>
     </g>
     <g id="text_18">
      <!-- 600 -->
      <g style="fill: #262626" transform="translate(304.72 32.142537) scale(0.11 -0.11)">
       <defs>
        <path id="NotoSans-Regular-36" d="M 352 1952 
Q 352 2445 438 2921 
Q 525 3398 752 3785 
Q 979 4173 1388 4403 
Q 1798 4634 2445 4634 
Q 2579 4634 2742 4621 
Q 2906 4608 3008 4576 
L 3008 4096 
Q 2893 4134 2749 4153 
Q 2605 4173 2458 4173 
Q 2016 4173 1721 4025 
Q 1427 3878 1257 3622 
Q 1088 3366 1011 3033 
Q 934 2701 915 2323 
L 954 2323 
Q 1101 2547 1363 2704 
Q 1626 2861 2035 2861 
Q 2630 2861 2995 2499 
Q 3360 2138 3360 1472 
Q 3360 755 2966 345 
Q 2573 -64 1907 -64 
Q 1472 -64 1120 153 
Q 768 371 560 819 
Q 352 1267 352 1952 
z
M 1901 410 
Q 2304 410 2553 669 
Q 2803 928 2803 1472 
Q 2803 1907 2582 2163 
Q 2362 2419 1920 2419 
Q 1619 2419 1395 2294 
Q 1171 2170 1046 1978 
Q 922 1786 922 1581 
Q 922 1306 1030 1034 
Q 1139 762 1356 586 
Q 1574 410 1901 410 
z
" transform="scale(0.015625)"/>
       </defs>
       <use xlink:href="#NotoSans-Regular-36"/>
       <use xlink:href="#NotoSans-Regular-30" transform="translate(57.199997 0)"/>
       <use xlink:href="#NotoSans-Regular-30" transform="translate(114.399994 0)"/>
      </g>
     </g>
    </g>
    <g id="text_19">
     <!-- Frequency -->
     <g style="fill: #262626" transform="translate(297.84 118.576562) rotate(-90) scale(0.12 -0.12)">
      <use xlink:href="#NotoSans-Regular-46"/>
      <use xlink:href="#NotoSans-Regular-72" transform="translate(51.899994 0)"/>
      <use xlink:href="#NotoSans-Regular-65" transform="translate(93.199982 0)"/>
      <use xlink:href="#NotoSans-Regular-71" transform="translate(149.599976 0)"/>
      <use xlink:href="#NotoSans-Regular-75" transform="translate(211.09996 0)"/>
      <use xlink:href="#NotoSans-Regular-65" transform="translate(272.899948 0)"/>
      <use xlink:href="#NotoSans-Regular-6e" transform="translate(329.299942 0)"/>
      <use xlink:href="#NotoSans-Regular-63" transform="translate(391.09993 0)"/>
      <use xlink:href="#NotoSans-Regular-79" transform="translate(439.099915 0)"/>
     </g>
    </g>
   </g>
   <g id="patch_53">
    <path d="M 343.30794 150.5 
L 347.846122 150.5 
L 347.846122 150.295771 
L 343.30794 150.295771 
z
" clip-path="url(#p464bd71f65)" style="fill: #ff7f50; stroke: #000000; stroke-linejoin: miter"/>
   </g>
   <g id="patch_54">
    <path d="M 347.846122 150.5 
L 352.384304 150.5 
L 352.384304 150.5 
L 347.846122 150.5 
z
" clip-path="url(#p464bd71f65)" style="fill: #ff7f50; stroke: #000000; stroke-linejoin: miter"/>
   </g>
   <g id="patch_55">
    <path d="M 352.384304 150.5 
L 356.922486 150.5 
L 356.922486 150.295771 
L 352.384304 150.295771 
z
" clip-path="url(#p464bd71f65)" style="fill: #ff7f50; stroke: #000000; stroke-linejoin: miter"/>
   </g>
   <g id="patch_56">
    <path d="M 356.922486 150.5 
L 361.460668 150.5 
L 361.460668 150.295771 
L 356.922486 150.295771 
z
" clip-path="url(#p464bd71f65)" style="fill: #ff7f50; stroke: #000000; stroke-linejoin: miter"/>
   </g>
   <g id="patch_57">
    <path d="M 361.460668 150.5 
L 365.998849 150.5 
L 365.998849 150.295771 
L 361.460668 150.295771 
z
" clip-path="url(#p464bd71f65)" style="fill: #ff7f50; stroke: #000000; stroke-linejoin: miter"/>
   </g>
   <g id="patch_58">
    <path d="M 365.998849 150.5 
L 370.537031 150.5 
L 370.537031 150.295771 
L 365.998849 150.295771 
z
" clip-path="url(#p464bd71f65)" style="fill: #ff7f50; stroke: #000000; stroke-linejoin: miter"/>
   </g>
   <g id="patch_59">
    <path d="M 370.537031 150.5 
L 375.075213 150.5 
L 375.075213 150.295771 
L 370.537031 150.295771 
z
" clip-path="url(#p464bd71f65)" style="fill: #ff7f50; stroke: #000000; stroke-linejoin: miter"/>
   </g>
   <g id="patch_60">
    <path d="M 375.075213 150.5 
L 379.613395 150.5 
L 379.613395 149.887313 
L 375.075213 149.887313 
z
" clip-path="url(#p464bd71f65)" style="fill: #ff7f50; stroke: #000000; stroke-linejoin: miter"/>
   </g>
   <g id="patch_61">
    <path d="M 379.613395 150.5 
L 384.151577 150.5 
L 384.151577 149.070396 
L 379.613395 149.070396 
z
" clip-path="url(#p464bd71f65)" style="fill: #ff7f50; stroke: #000000; stroke-linejoin: miter"/>
   </g>
   <g id="patch_62">
    <path d="M 384.151577 150.5 
L 388.689759 150.5 
L 388.689759 149.274625 
L 384.151577 149.274625 
z
" clip-path="url(#p464bd71f65)" style="fill: #ff7f50; stroke: #000000; stroke-linejoin: miter"/>
   </g>
   <g id="patch_63">
    <path d="M 388.689759 150.5 
L 393.22794 150.5 
L 393.22794 148.457709 
L 388.689759 148.457709 
z
" clip-path="url(#p464bd71f65)" style="fill: #ff7f50; stroke: #000000; stroke-linejoin: miter"/>
   </g>
   <g id="patch_64">
    <path d="M 393.22794 150.5 
L 397.766122 150.5 
L 397.766122 146.415418 
L 393.22794 146.415418 
z
" clip-path="url(#p464bd71f65)" style="fill: #ff7f50; stroke: #000000; stroke-linejoin: miter"/>
   </g>
   <g id="patch_65">
    <path d="M 397.766122 150.5 
L 402.304304 150.5 
L 402.304304 145.598501 
L 397.766122 145.598501 
z
" clip-path="url(#p464bd71f65)" style="fill: #ff7f50; stroke: #000000; stroke-linejoin: miter"/>
   </g>
   <g id="patch_66">
    <path d="M 402.304304 150.5 
L 406.842486 150.5 
L 406.842486 144.373127 
L 402.304304 144.373127 
z
" clip-path="url(#p464bd71f65)" style="fill: #ff7f50; stroke: #000000; stroke-linejoin: miter"/>
   </g>
   <g id="patch_67">
    <path d="M 406.842486 150.5 
L 411.380668 150.5 
L 411.380668 143.964669 
L 406.842486 143.964669 
z
" clip-path="url(#p464bd71f65)" style="fill: #ff7f50; stroke: #000000; stroke-linejoin: miter"/>
   </g>
   <g id="patch_68">
    <path d="M 411.380668 150.5 
L 415.918849 150.5 
L 415.918849 139.06317 
L 411.380668 139.06317 
z
" clip-path="url(#p464bd71f65)" style="fill: #ff7f50; stroke: #000000; stroke-linejoin: miter"/>
   </g>
   <g id="patch_69">
    <path d="M 415.918849 150.5 
L 420.457031 150.5 
L 420.457031 133.548984 
L 415.918849 133.548984 
z
" clip-path="url(#p464bd71f65)" style="fill: #ff7f50; stroke: #000000; stroke-linejoin: miter"/>
   </g>
   <g id="patch_70">
    <path d="M 420.457031 150.5 
L 424.995213 150.5 
L 424.995213 134.365901 
L 420.457031 134.365901 
z
" clip-path="url(#p464bd71f65)" style="fill: #ff7f50; stroke: #000000; stroke-linejoin: miter"/>
   </g>
   <g id="patch_71">
    <path d="M 424.995213 150.5 
L 429.533395 150.5 
L 429.533395 130.485548 
L 424.995213 130.485548 
z
" clip-path="url(#p464bd71f65)" style="fill: #ff7f50; stroke: #000000; stroke-linejoin: miter"/>
   </g>
   <g id="patch_72">
    <path d="M 429.533395 150.5 
L 434.071577 150.5 
L 434.071577 120.682551 
L 429.533395 120.682551 
z
" clip-path="url(#p464bd71f65)" style="fill: #ff7f50; stroke: #000000; stroke-linejoin: miter"/>
   </g>
   <g id="patch_73">
    <path d="M 434.071577 150.5 
L 438.609759 150.5 
L 438.609759 123.950216 
L 434.071577 123.950216 
z
" clip-path="url(#p464bd71f65)" style="fill: #ff7f50; stroke: #000000; stroke-linejoin: miter"/>
   </g>
   <g id="patch_74">
    <path d="M 438.609759 150.5 
L 443.14794 150.5 
L 443.14794 121.091009 
L 438.609759 121.091009 
z
" clip-path="url(#p464bd71f65)" style="fill: #ff7f50; stroke: #000000; stroke-linejoin: miter"/>
   </g>
   <g id="patch_75">
    <path d="M 443.14794 150.5 
L 447.686122 150.5 
L 447.686122 123.1333 
L 443.14794 123.1333 
z
" clip-path="url(#p464bd71f65)" style="fill: #ff7f50; stroke: #000000; stroke-linejoin: miter"/>
   </g>
   <g id="patch_76">
    <path d="M 447.686122 150.5 
L 452.224304 150.5 
L 452.224304 76.773293 
L 447.686122 76.773293 
z
" clip-path="url(#p464bd71f65)" style="fill: #ff7f50; stroke: #000000; stroke-linejoin: miter"/>
   </g>
   <g id="patch_77">
    <path d="M 452.224304 150.5 
L 456.762486 150.5 
L 456.762486 33.680952 
L 452.224304 33.680952 
z
" clip-path="url(#p464bd71f65)" style="fill: #ff7f50; stroke: #000000; stroke-linejoin: miter"/>
   </g>
   <g id="patch_78">
    <path d="M 456.762486 150.5 
L 461.300668 150.5 
L 461.300668 116.39374 
L 456.762486 116.39374 
z
" clip-path="url(#p464bd71f65)" style="fill: #ff7f50; stroke: #000000; stroke-linejoin: miter"/>
   </g>
   <g id="patch_79">
    <path d="M 461.300668 150.5 
L 465.838849 150.5 
L 465.838849 119.865634 
L 461.300668 119.865634 
z
" clip-path="url(#p464bd71f65)" style="fill: #ff7f50; stroke: #000000; stroke-linejoin: miter"/>
   </g>
   <g id="patch_80">
    <path d="M 465.838849 150.5 
L 470.377031 150.5 
L 470.377031 128.851715 
L 465.838849 128.851715 
z
" clip-path="url(#p464bd71f65)" style="fill: #ff7f50; stroke: #000000; stroke-linejoin: miter"/>
   </g>
   <g id="patch_81">
    <path d="M 470.377031 150.5 
L 474.915213 150.5 
L 474.915213 122.112155 
L 470.377031 122.112155 
z
" clip-path="url(#p464bd71f65)" style="fill: #ff7f50; stroke: #000000; stroke-linejoin: miter"/>
   </g>
   <g id="patch_82">
    <path d="M 474.915213 150.5 
L 479.453395 150.5 
L 479.453395 125.37982 
L 474.915213 125.37982 
z
" clip-path="url(#p464bd71f65)" style="fill: #ff7f50; stroke: #000000; stroke-linejoin: miter"/>
   </g>
   <g id="patch_83">
    <path d="M 479.453395 150.5 
L 483.991577 150.5 
L 483.991577 132.32361 
L 479.453395 132.32361 
z
" clip-path="url(#p464bd71f65)" style="fill: #ff7f50; stroke: #000000; stroke-linejoin: miter"/>
   </g>
   <g id="patch_84">
    <path d="M 483.991577 150.5 
L 488.529759 150.5 
L 488.529759 137.429337 
L 483.991577 137.429337 
z
" clip-path="url(#p464bd71f65)" style="fill: #ff7f50; stroke: #000000; stroke-linejoin: miter"/>
   </g>
   <g id="patch_85">
    <path d="M 488.529759 150.5 
L 493.06794 150.5 
L 493.06794 140.084316 
L 488.529759 140.084316 
z
" clip-path="url(#p464bd71f65)" style="fill: #ff7f50; stroke: #000000; stroke-linejoin: miter"/>
   </g>
   <g id="patch_86">
    <path d="M 493.06794 150.5 
L 497.606122 150.5 
L 497.606122 139.471628 
L 493.06794 139.471628 
z
" clip-path="url(#p464bd71f65)" style="fill: #ff7f50; stroke: #000000; stroke-linejoin: miter"/>
   </g>
   <g id="patch_87">
    <path d="M 497.606122 150.5 
L 502.144304 150.5 
L 502.144304 143.55621 
L 497.606122 143.55621 
z
" clip-path="url(#p464bd71f65)" style="fill: #ff7f50; stroke: #000000; stroke-linejoin: miter"/>
   </g>
   <g id="patch_88">
    <path d="M 502.144304 150.5 
L 506.682486 150.5 
L 506.682486 145.394272 
L 502.144304 145.394272 
z
" clip-path="url(#p464bd71f65)" style="fill: #ff7f50; stroke: #000000; stroke-linejoin: miter"/>
   </g>
   <g id="patch_89">
    <path d="M 506.682486 150.5 
L 511.220668 150.5 
L 511.220668 145.598501 
L 506.682486 145.598501 
z
" clip-path="url(#p464bd71f65)" style="fill: #ff7f50; stroke: #000000; stroke-linejoin: miter"/>
   </g>
   <g id="patch_90">
    <path d="M 511.220668 150.5 
L 515.758849 150.5 
L 515.758849 148.866167 
L 511.220668 148.866167 
z
" clip-path="url(#p464bd71f65)" style="fill: #ff7f50; stroke: #000000; stroke-linejoin: miter"/>
   </g>
   <g id="patch_91">
    <path d="M 515.758849 150.5 
L 520.297031 150.5 
L 520.297031 149.274625 
L 515.758849 149.274625 
z
" clip-path="url(#p464bd71f65)" style="fill: #ff7f50; stroke: #000000; stroke-linejoin: miter"/>
   </g>
   <g id="patch_92">
    <path d="M 520.297031 150.5 
L 524.835213 150.5 
L 524.835213 148.866167 
L 520.297031 148.866167 
z
" clip-path="url(#p464bd71f65)" style="fill: #ff7f50; stroke: #000000; stroke-linejoin: miter"/>
   </g>
   <g id="patch_93">
    <path d="M 524.835213 150.5 
L 529.373395 150.5 
L 529.373395 149.070396 
L 524.835213 149.070396 
z
" clip-path="url(#p464bd71f65)" style="fill: #ff7f50; stroke: #000000; stroke-linejoin: miter"/>
   </g>
   <g id="patch_94">
    <path d="M 529.373395 150.5 
L 533.911577 150.5 
L 533.911577 150.295771 
L 529.373395 150.295771 
z
" clip-path="url(#p464bd71f65)" style="fill: #ff7f50; stroke: #000000; stroke-linejoin: miter"/>
   </g>
   <g id="patch_95">
    <path d="M 533.911577 150.5 
L 538.449759 150.5 
L 538.449759 150.295771 
L 533.911577 150.295771 
z
" clip-path="url(#p464bd71f65)" style="fill: #ff7f50; stroke: #000000; stroke-linejoin: miter"/>
   </g>
   <g id="patch_96">
    <path d="M 538.449759 150.5 
L 542.98794 150.5 
L 542.98794 150.295771 
L 538.449759 150.295771 
z
" clip-path="url(#p464bd71f65)" style="fill: #ff7f50; stroke: #000000; stroke-linejoin: miter"/>
   </g>
   <g id="patch_97">
    <path d="M 542.98794 150.5 
L 547.526122 150.5 
L 547.526122 150.295771 
L 542.98794 150.295771 
z
" clip-path="url(#p464bd71f65)" style="fill: #ff7f50; stroke: #000000; stroke-linejoin: miter"/>
   </g>
   <g id="patch_98">
    <path d="M 333.097031 150.5 
L 333.097031 27.84 
" style="fill: none; stroke: #ffffff; stroke-width: 1.25; stroke-linejoin: miter; stroke-linecap: square"/>
   </g>
   <g id="patch_99">
    <path d="M 557.737031 150.5 
L 557.737031 27.84 
" style="fill: none; stroke: #ffffff; stroke-width: 1.25; stroke-linejoin: miter; stroke-linecap: square"/>
   </g>
   <g id="patch_100">
    <path d="M 333.097031 150.5 
L 557.737031 150.5 
" style="fill: none; stroke: #ffffff; stroke-width: 1.25; stroke-linejoin: miter; stroke-linecap: square"/>
   </g>
   <g id="patch_101">
    <path d="M 333.097031 27.84 
L 557.737031 27.84 
" style="fill: none; stroke: #ffffff; stroke-width: 1.25; stroke-linejoin: miter; stroke-linecap: square"/>
   </g>
   <g id="text_20">
    <!-- Mean Imputation -->
    <g style="fill: #262626" transform="translate(388.151563 17.84) scale(0.14 -0.14)">
     <defs>
      <path id="NotoSans-Regular-4d" d="M 2637 0 
L 1133 4006 
L 1107 4006 
Q 1126 3808 1139 3472 
Q 1152 3136 1152 2771 
L 1152 0 
L 621 0 
L 621 4570 
L 1472 4570 
L 2880 826 
L 2906 826 
L 4339 4570 
L 5184 4570 
L 5184 0 
L 4614 0 
L 4614 2810 
Q 4614 3142 4630 3468 
Q 4646 3795 4659 4000 
L 4634 4000 
L 3110 0 
L 2637 0 
z
" transform="scale(0.015625)"/>
      <path id="NotoSans-Regular-49" d="M 1907 0 
L 256 0 
L 256 333 
L 794 454 
L 794 4109 
L 256 4237 
L 256 4570 
L 1907 4570 
L 1907 4237 
L 1370 4109 
L 1370 454 
L 1907 333 
L 1907 0 
z
" transform="scale(0.015625)"/>
      <path id="NotoSans-Regular-6d" d="M 4307 3494 
Q 4890 3494 5178 3196 
Q 5466 2899 5466 2234 
L 5466 0 
L 4909 0 
L 4909 2208 
Q 4909 3021 4211 3021 
Q 3712 3021 3497 2733 
Q 3283 2445 3283 1894 
L 3283 0 
L 2726 0 
L 2726 2208 
Q 2726 3021 2022 3021 
Q 1504 3021 1305 2701 
Q 1107 2381 1107 1779 
L 1107 0 
L 544 0 
L 544 3430 
L 998 3430 
L 1082 2963 
L 1114 2963 
Q 1274 3232 1546 3363 
Q 1818 3494 2125 3494 
Q 2931 3494 3174 2918 
L 3206 2918 
Q 3379 3213 3676 3353 
Q 3974 3494 4307 3494 
z
" transform="scale(0.015625)"/>
      <path id="NotoSans-Regular-70" d="M 2176 3494 
Q 2810 3494 3197 3052 
Q 3584 2611 3584 1722 
Q 3584 845 3197 390 
Q 2810 -64 2170 -64 
Q 1773 -64 1513 86 
Q 1254 237 1107 435 
L 1069 435 
Q 1082 326 1094 160 
Q 1107 -6 1107 -128 
L 1107 -1536 
L 544 -1536 
L 544 3430 
L 1005 3430 
L 1082 2963 
L 1107 2963 
Q 1261 3187 1510 3340 
Q 1760 3494 2176 3494 
z
M 2074 3021 
Q 1549 3021 1334 2726 
Q 1120 2432 1107 1830 
L 1107 1722 
Q 1107 1088 1315 745 
Q 1523 403 2086 403 
Q 2400 403 2601 576 
Q 2803 749 2902 1046 
Q 3002 1344 3002 1728 
Q 3002 2317 2774 2669 
Q 2547 3021 2074 3021 
z
" transform="scale(0.015625)"/>
     </defs>
     <use xlink:href="#NotoSans-Regular-4d"/>
     <use xlink:href="#NotoSans-Regular-65" transform="translate(90.699982 0)"/>
     <use xlink:href="#NotoSans-Regular-61" transform="translate(147.099976 0)"/>
     <use xlink:href="#NotoSans-Regular-6e" transform="translate(203.199966 0)"/>
     <use xlink:href="#NotoSans-Regular-20" transform="translate(264.999954 0)"/>
     <use xlink:href="#NotoSans-Regular-49" transform="translate(290.999939 0)"/>
     <use xlink:href="#NotoSans-Regular-6d" transform="translate(324.899933 0)"/>
     <use xlink:href="#NotoSans-Regular-70" transform="translate(418.399918 0)"/>
     <use xlink:href="#NotoSans-Regular-75" transform="translate(479.899902 0)"/>
     <use xlink:href="#NotoSans-Regular-74" transform="translate(541.69989 0)"/>
     <use xlink:href="#NotoSans-Regular-61" transform="translate(577.799881 0)"/>
     <use xlink:href="#NotoSans-Regular-74" transform="translate(633.899872 0)"/>
     <use xlink:href="#NotoSans-Regular-69" transform="translate(669.999863 0)"/>
     <use xlink:href="#NotoSans-Regular-6f" transform="translate(695.79985 0)"/>
     <use xlink:href="#NotoSans-Regular-6e" transform="translate(756.299835 0)"/>
    </g>
   </g>
  </g>
  <g id="axes_3">
   <g id="patch_102">
    <path d="M 51.577031 342.74 
L 276.217031 342.74 
L 276.217031 220.08 
L 51.577031 220.08 
z
" style="fill: #eaeaf2"/>
   </g>
   <g id="matplotlib.axis_5">
    <g id="xtick_7">
     <g id="line2d_15">
      <path d="M 76.315383 342.74 
L 76.315383 220.08 
" clip-path="url(#p6d65af22a1)" style="fill: none; stroke: #ffffff; stroke-linecap: round"/>
     </g>
     <g id="text_21">
      <!-- −5 -->
      <g style="fill: #262626" transform="translate(68.560383 360.6) scale(0.11 -0.11)">
       <use xlink:href="#DejaVuSans-2212"/>
       <use xlink:href="#NotoSans-Regular-35" transform="translate(83.789062 0)"/>
      </g>
     </g>
    </g>
    <g id="xtick_8">
     <g id="line2d_16">
      <path d="M 144.393364 342.74 
L 144.393364 220.08 
" clip-path="url(#p6d65af22a1)" style="fill: none; stroke: #ffffff; stroke-linecap: round"/>
     </g>
     <g id="text_22">
      <!-- 0 -->
      <g style="fill: #262626" transform="translate(141.247192 360.6) scale(0.11 -0.11)">
       <use xlink:href="#NotoSans-Regular-30"/>
      </g>
     </g>
    </g>
    <g id="xtick_9">
     <g id="line2d_17">
      <path d="M 212.471346 342.74 
L 212.471346 220.08 
" clip-path="url(#p6d65af22a1)" style="fill: none; stroke: #ffffff; stroke-linecap: round"/>
     </g>
     <g id="text_23">
      <!-- 5 -->
      <g style="fill: #262626" transform="translate(209.325174 360.6) scale(0.11 -0.11)">
       <use xlink:href="#NotoSans-Regular-35"/>
      </g>
     </g>
    </g>
    <g id="text_24">
     <!-- Value -->
     <g style="fill: #262626" transform="translate(148.291406 376.36) scale(0.12 -0.12)">
      <use xlink:href="#NotoSans-Regular-56"/>
      <use xlink:href="#NotoSans-Regular-61" transform="translate(59.999985 0)"/>
      <use xlink:href="#NotoSans-Regular-6c" transform="translate(116.099976 0)"/>
      <use xlink:href="#NotoSans-Regular-75" transform="translate(141.899963 0)"/>
      <use xlink:href="#NotoSans-Regular-65" transform="translate(203.699951 0)"/>
     </g>
    </g>
   </g>
   <g id="matplotlib.axis_6">
    <g id="ytick_9">
     <g id="line2d_18">
      <path d="M 51.577031 342.74 
L 276.217031 342.74 
" clip-path="url(#p6d65af22a1)" style="fill: none; stroke: #ffffff; stroke-linecap: round"/>
     </g>
     <g id="text_25">
      <!-- 0 -->
      <g style="fill: #262626" transform="translate(35.784688 346.92) scale(0.11 -0.11)">
       <use xlink:href="#NotoSans-Regular-30"/>
      </g>
     </g>
    </g>
    <g id="ytick_10">
     <g id="line2d_19">
      <path d="M 51.577031 310.199875 
L 276.217031 310.199875 
" clip-path="url(#p6d65af22a1)" style="fill: none; stroke: #ffffff; stroke-linecap: round"/>
     </g>
     <g id="text_26">
      <!-- 200 -->
      <g style="fill: #262626" transform="translate(23.2 314.379875) scale(0.11 -0.11)">
       <use xlink:href="#NotoSans-Regular-32"/>
       <use xlink:href="#NotoSans-Regular-30" transform="translate(57.199997 0)"/>
       <use xlink:href="#NotoSans-Regular-30" transform="translate(114.399994 0)"/>
      </g>
     </g>
    </g>
    <g id="ytick_11">
     <g id="line2d_20">
      <path d="M 51.577031 277.659751 
L 276.217031 277.659751 
" clip-path="url(#p6d65af22a1)" style="fill: none; stroke: #ffffff; stroke-linecap: round"/>
     </g>
     <g id="text_27">
      <!-- 400 -->
      <g style="fill: #262626" transform="translate(23.2 281.839751) scale(0.11 -0.11)">
       <use xlink:href="#NotoSans-Regular-34"/>
       <use xlink:href="#NotoSans-Regular-30" transform="translate(57.199997 0)"/>
       <use xlink:href="#NotoSans-Regular-30" transform="translate(114.399994 0)"/>
      </g>
     </g>
    </g>
    <g id="ytick_12">
     <g id="line2d_21">
      <path d="M 51.577031 245.119626 
L 276.217031 245.119626 
" clip-path="url(#p6d65af22a1)" style="fill: none; stroke: #ffffff; stroke-linecap: round"/>
     </g>
     <g id="text_28">
      <!-- 600 -->
      <g style="fill: #262626" transform="translate(23.2 249.299626) scale(0.11 -0.11)">
       <use xlink:href="#NotoSans-Regular-36"/>
       <use xlink:href="#NotoSans-Regular-30" transform="translate(57.199997 0)"/>
       <use xlink:href="#NotoSans-Regular-30" transform="translate(114.399994 0)"/>
      </g>
     </g>
    </g>
    <g id="text_29">
     <!-- Frequency -->
     <g style="fill: #262626" transform="translate(16.32 310.816562) rotate(-90) scale(0.12 -0.12)">
      <use xlink:href="#NotoSans-Regular-46"/>
      <use xlink:href="#NotoSans-Regular-72" transform="translate(51.899994 0)"/>
      <use xlink:href="#NotoSans-Regular-65" transform="translate(93.199982 0)"/>
      <use xlink:href="#NotoSans-Regular-71" transform="translate(149.599976 0)"/>
      <use xlink:href="#NotoSans-Regular-75" transform="translate(211.09996 0)"/>
      <use xlink:href="#NotoSans-Regular-65" transform="translate(272.899948 0)"/>
      <use xlink:href="#NotoSans-Regular-6e" transform="translate(329.299942 0)"/>
      <use xlink:href="#NotoSans-Regular-63" transform="translate(391.09993 0)"/>
      <use xlink:href="#NotoSans-Regular-79" transform="translate(439.099915 0)"/>
     </g>
    </g>
   </g>
   <g id="patch_103">
    <path d="M 61.78794 342.74 
L 66.326122 342.74 
L 66.326122 342.577299 
L 61.78794 342.577299 
z
" clip-path="url(#p6d65af22a1)" style="fill: #ff7f50; stroke: #000000; stroke-linejoin: miter"/>
   </g>
   <g id="patch_104">
    <path d="M 66.326122 342.74 
L 70.864304 342.74 
L 70.864304 342.74 
L 66.326122 342.74 
z
" clip-path="url(#p6d65af22a1)" style="fill: #ff7f50; stroke: #000000; stroke-linejoin: miter"/>
   </g>
   <g id="patch_105">
    <path d="M 70.864304 342.74 
L 75.402486 342.74 
L 75.402486 342.577299 
L 70.864304 342.577299 
z
" clip-path="url(#p6d65af22a1)" style="fill: #ff7f50; stroke: #000000; stroke-linejoin: miter"/>
   </g>
   <g id="patch_106">
    <path d="M 75.402486 342.74 
L 79.940668 342.74 
L 79.940668 342.577299 
L 75.402486 342.577299 
z
" clip-path="url(#p6d65af22a1)" style="fill: #ff7f50; stroke: #000000; stroke-linejoin: miter"/>
   </g>
   <g id="patch_107">
    <path d="M 79.940668 342.74 
L 84.478849 342.74 
L 84.478849 342.577299 
L 79.940668 342.577299 
z
" clip-path="url(#p6d65af22a1)" style="fill: #ff7f50; stroke: #000000; stroke-linejoin: miter"/>
   </g>
   <g id="patch_108">
    <path d="M 84.478849 342.74 
L 89.017031 342.74 
L 89.017031 342.577299 
L 84.478849 342.577299 
z
" clip-path="url(#p6d65af22a1)" style="fill: #ff7f50; stroke: #000000; stroke-linejoin: miter"/>
   </g>
   <g id="patch_109">
    <path d="M 89.017031 342.74 
L 93.555213 342.74 
L 93.555213 342.577299 
L 89.017031 342.577299 
z
" clip-path="url(#p6d65af22a1)" style="fill: #ff7f50; stroke: #000000; stroke-linejoin: miter"/>
   </g>
   <g id="patch_110">
    <path d="M 93.555213 342.74 
L 98.093395 342.74 
L 98.093395 342.251898 
L 93.555213 342.251898 
z
" clip-path="url(#p6d65af22a1)" style="fill: #ff7f50; stroke: #000000; stroke-linejoin: miter"/>
   </g>
   <g id="patch_111">
    <path d="M 98.093395 342.74 
L 102.631577 342.74 
L 102.631577 341.601096 
L 98.093395 341.601096 
z
" clip-path="url(#p6d65af22a1)" style="fill: #ff7f50; stroke: #000000; stroke-linejoin: miter"/>
   </g>
   <g id="patch_112">
    <path d="M 102.631577 342.74 
L 107.169759 342.74 
L 107.169759 341.763796 
L 102.631577 341.763796 
z
" clip-path="url(#p6d65af22a1)" style="fill: #ff7f50; stroke: #000000; stroke-linejoin: miter"/>
   </g>
   <g id="patch_113">
    <path d="M 107.169759 342.74 
L 111.70794 342.74 
L 111.70794 341.112994 
L 107.169759 341.112994 
z
" clip-path="url(#p6d65af22a1)" style="fill: #ff7f50; stroke: #000000; stroke-linejoin: miter"/>
   </g>
   <g id="patch_114">
    <path d="M 111.70794 342.74 
L 116.246122 342.74 
L 116.246122 339.485988 
L 111.70794 339.485988 
z
" clip-path="url(#p6d65af22a1)" style="fill: #ff7f50; stroke: #000000; stroke-linejoin: miter"/>
   </g>
   <g id="patch_115">
    <path d="M 116.246122 342.74 
L 120.784304 342.74 
L 120.784304 338.835185 
L 116.246122 338.835185 
z
" clip-path="url(#p6d65af22a1)" style="fill: #ff7f50; stroke: #000000; stroke-linejoin: miter"/>
   </g>
   <g id="patch_116">
    <path d="M 120.784304 342.74 
L 125.322486 342.74 
L 125.322486 337.858981 
L 120.784304 337.858981 
z
" clip-path="url(#p6d65af22a1)" style="fill: #ff7f50; stroke: #000000; stroke-linejoin: miter"/>
   </g>
   <g id="patch_117">
    <path d="M 125.322486 342.74 
L 129.860668 342.74 
L 129.860668 337.53358 
L 125.322486 337.53358 
z
" clip-path="url(#p6d65af22a1)" style="fill: #ff7f50; stroke: #000000; stroke-linejoin: miter"/>
   </g>
   <g id="patch_118">
    <path d="M 129.860668 342.74 
L 134.398849 342.74 
L 134.398849 333.628765 
L 129.860668 333.628765 
z
" clip-path="url(#p6d65af22a1)" style="fill: #ff7f50; stroke: #000000; stroke-linejoin: miter"/>
   </g>
   <g id="patch_119">
    <path d="M 134.398849 342.74 
L 138.937031 342.74 
L 138.937031 329.235848 
L 134.398849 329.235848 
z
" clip-path="url(#p6d65af22a1)" style="fill: #ff7f50; stroke: #000000; stroke-linejoin: miter"/>
   </g>
   <g id="patch_120">
    <path d="M 138.937031 342.74 
L 143.475213 342.74 
L 143.475213 329.886651 
L 138.937031 329.886651 
z
" clip-path="url(#p6d65af22a1)" style="fill: #ff7f50; stroke: #000000; stroke-linejoin: miter"/>
   </g>
   <g id="patch_121">
    <path d="M 143.475213 342.74 
L 148.013395 342.74 
L 148.013395 225.920952 
L 143.475213 225.920952 
z
" clip-path="url(#p6d65af22a1)" style="fill: #ff7f50; stroke: #000000; stroke-linejoin: miter"/>
   </g>
   <g id="patch_122">
    <path d="M 148.013395 342.74 
L 152.551577 342.74 
L 152.551577 318.985709 
L 148.013395 318.985709 
z
" clip-path="url(#p6d65af22a1)" style="fill: #ff7f50; stroke: #000000; stroke-linejoin: miter"/>
   </g>
   <g id="patch_123">
    <path d="M 152.551577 342.74 
L 157.089759 342.74 
L 157.089759 321.588919 
L 152.551577 321.588919 
z
" clip-path="url(#p6d65af22a1)" style="fill: #ff7f50; stroke: #000000; stroke-linejoin: miter"/>
   </g>
   <g id="patch_124">
    <path d="M 157.089759 342.74 
L 161.62794 342.74 
L 161.62794 319.31111 
L 157.089759 319.31111 
z
" clip-path="url(#p6d65af22a1)" style="fill: #ff7f50; stroke: #000000; stroke-linejoin: miter"/>
   </g>
   <g id="patch_125">
    <path d="M 161.62794 342.74 
L 166.166122 342.74 
L 166.166122 320.938116 
L 161.62794 320.938116 
z
" clip-path="url(#p6d65af22a1)" style="fill: #ff7f50; stroke: #000000; stroke-linejoin: miter"/>
   </g>
   <g id="patch_126">
    <path d="M 166.166122 342.74 
L 170.704304 342.74 
L 170.704304 318.009505 
L 166.166122 318.009505 
z
" clip-path="url(#p6d65af22a1)" style="fill: #ff7f50; stroke: #000000; stroke-linejoin: miter"/>
   </g>
   <g id="patch_127">
    <path d="M 170.704304 342.74 
L 175.242486 342.74 
L 175.242486 316.5452 
L 170.704304 316.5452 
z
" clip-path="url(#p6d65af22a1)" style="fill: #ff7f50; stroke: #000000; stroke-linejoin: miter"/>
   </g>
   <g id="patch_128">
    <path d="M 175.242486 342.74 
L 179.780668 342.74 
L 179.780668 315.568996 
L 175.242486 315.568996 
z
" clip-path="url(#p6d65af22a1)" style="fill: #ff7f50; stroke: #000000; stroke-linejoin: miter"/>
   </g>
   <g id="patch_129">
    <path d="M 179.780668 342.74 
L 184.318849 342.74 
L 184.318849 318.334906 
L 179.780668 318.334906 
z
" clip-path="url(#p6d65af22a1)" style="fill: #ff7f50; stroke: #000000; stroke-linejoin: miter"/>
   </g>
   <g id="patch_130">
    <path d="M 184.318849 342.74 
L 188.857031 342.74 
L 188.857031 325.493734 
L 184.318849 325.493734 
z
" clip-path="url(#p6d65af22a1)" style="fill: #ff7f50; stroke: #000000; stroke-linejoin: miter"/>
   </g>
   <g id="patch_131">
    <path d="M 188.857031 342.74 
L 193.395213 342.74 
L 193.395213 320.124613 
L 188.857031 320.124613 
z
" clip-path="url(#p6d65af22a1)" style="fill: #ff7f50; stroke: #000000; stroke-linejoin: miter"/>
   </g>
   <g id="patch_132">
    <path d="M 193.395213 342.74 
L 197.933395 342.74 
L 197.933395 322.727823 
L 193.395213 322.727823 
z
" clip-path="url(#p6d65af22a1)" style="fill: #ff7f50; stroke: #000000; stroke-linejoin: miter"/>
   </g>
   <g id="patch_133">
    <path d="M 197.933395 342.74 
L 202.471577 342.74 
L 202.471577 328.259645 
L 197.933395 328.259645 
z
" clip-path="url(#p6d65af22a1)" style="fill: #ff7f50; stroke: #000000; stroke-linejoin: miter"/>
   </g>
   <g id="patch_134">
    <path d="M 202.471577 342.74 
L 207.009759 342.74 
L 207.009759 332.32716 
L 202.471577 332.32716 
z
" clip-path="url(#p6d65af22a1)" style="fill: #ff7f50; stroke: #000000; stroke-linejoin: miter"/>
   </g>
   <g id="patch_135">
    <path d="M 207.009759 342.74 
L 211.54794 342.74 
L 211.54794 334.442268 
L 207.009759 334.442268 
z
" clip-path="url(#p6d65af22a1)" style="fill: #ff7f50; stroke: #000000; stroke-linejoin: miter"/>
   </g>
   <g id="patch_136">
    <path d="M 211.54794 342.74 
L 216.086122 342.74 
L 216.086122 333.954166 
L 211.54794 333.954166 
z
" clip-path="url(#p6d65af22a1)" style="fill: #ff7f50; stroke: #000000; stroke-linejoin: miter"/>
   </g>
   <g id="patch_137">
    <path d="M 216.086122 342.74 
L 220.624304 342.74 
L 220.624304 337.208179 
L 216.086122 337.208179 
z
" clip-path="url(#p6d65af22a1)" style="fill: #ff7f50; stroke: #000000; stroke-linejoin: miter"/>
   </g>
   <g id="patch_138">
    <path d="M 220.624304 342.74 
L 225.162486 342.74 
L 225.162486 338.672484 
L 220.624304 338.672484 
z
" clip-path="url(#p6d65af22a1)" style="fill: #ff7f50; stroke: #000000; stroke-linejoin: miter"/>
   </g>
   <g id="patch_139">
    <path d="M 225.162486 342.74 
L 229.700668 342.74 
L 229.700668 338.835185 
L 225.162486 338.835185 
z
" clip-path="url(#p6d65af22a1)" style="fill: #ff7f50; stroke: #000000; stroke-linejoin: miter"/>
   </g>
   <g id="patch_140">
    <path d="M 229.700668 342.74 
L 234.238849 342.74 
L 234.238849 341.438395 
L 229.700668 341.438395 
z
" clip-path="url(#p6d65af22a1)" style="fill: #ff7f50; stroke: #000000; stroke-linejoin: miter"/>
   </g>
   <g id="patch_141">
    <path d="M 234.238849 342.74 
L 238.777031 342.74 
L 238.777031 341.763796 
L 234.238849 341.763796 
z
" clip-path="url(#p6d65af22a1)" style="fill: #ff7f50; stroke: #000000; stroke-linejoin: miter"/>
   </g>
   <g id="patch_142">
    <path d="M 238.777031 342.74 
L 243.315213 342.74 
L 243.315213 341.438395 
L 238.777031 341.438395 
z
" clip-path="url(#p6d65af22a1)" style="fill: #ff7f50; stroke: #000000; stroke-linejoin: miter"/>
   </g>
   <g id="patch_143">
    <path d="M 243.315213 342.74 
L 247.853395 342.74 
L 247.853395 341.601096 
L 243.315213 341.601096 
z
" clip-path="url(#p6d65af22a1)" style="fill: #ff7f50; stroke: #000000; stroke-linejoin: miter"/>
   </g>
   <g id="patch_144">
    <path d="M 247.853395 342.74 
L 252.391577 342.74 
L 252.391577 342.577299 
L 247.853395 342.577299 
z
" clip-path="url(#p6d65af22a1)" style="fill: #ff7f50; stroke: #000000; stroke-linejoin: miter"/>
   </g>
   <g id="patch_145">
    <path d="M 252.391577 342.74 
L 256.929759 342.74 
L 256.929759 342.577299 
L 252.391577 342.577299 
z
" clip-path="url(#p6d65af22a1)" style="fill: #ff7f50; stroke: #000000; stroke-linejoin: miter"/>
   </g>
   <g id="patch_146">
    <path d="M 256.929759 342.74 
L 261.46794 342.74 
L 261.46794 342.577299 
L 256.929759 342.577299 
z
" clip-path="url(#p6d65af22a1)" style="fill: #ff7f50; stroke: #000000; stroke-linejoin: miter"/>
   </g>
   <g id="patch_147">
    <path d="M 261.46794 342.74 
L 266.006122 342.74 
L 266.006122 342.577299 
L 261.46794 342.577299 
z
" clip-path="url(#p6d65af22a1)" style="fill: #ff7f50; stroke: #000000; stroke-linejoin: miter"/>
   </g>
   <g id="patch_148">
    <path d="M 51.577031 342.74 
L 51.577031 220.08 
" style="fill: none; stroke: #ffffff; stroke-width: 1.25; stroke-linejoin: miter; stroke-linecap: square"/>
   </g>
   <g id="patch_149">
    <path d="M 276.217031 342.74 
L 276.217031 220.08 
" style="fill: none; stroke: #ffffff; stroke-width: 1.25; stroke-linejoin: miter; stroke-linecap: square"/>
   </g>
   <g id="patch_150">
    <path d="M 51.577031 342.74 
L 276.217031 342.74 
" style="fill: none; stroke: #ffffff; stroke-width: 1.25; stroke-linejoin: miter; stroke-linecap: square"/>
   </g>
   <g id="patch_151">
    <path d="M 51.577031 220.08 
L 276.217031 220.08 
" style="fill: none; stroke: #ffffff; stroke-width: 1.25; stroke-linejoin: miter; stroke-linecap: square"/>
   </g>
   <g id="text_30">
    <!-- Zero Imputation -->
    <g style="fill: #262626" transform="translate(110.103125 210.08) scale(0.14 -0.14)">
     <defs>
      <path id="NotoSans-Regular-5a" d="M 3411 0 
L 243 0 
L 243 435 
L 2650 4058 
L 320 4058 
L 320 4570 
L 3347 4570 
L 3347 4134 
L 941 512 
L 3411 512 
L 3411 0 
z
" transform="scale(0.015625)"/>
     </defs>
     <use xlink:href="#NotoSans-Regular-5a"/>
     <use xlink:href="#NotoSans-Regular-65" transform="translate(57.199997 0)"/>
     <use xlink:href="#NotoSans-Regular-72" transform="translate(113.599991 0)"/>
     <use xlink:href="#NotoSans-Regular-6f" transform="translate(154.899979 0)"/>
     <use xlink:href="#NotoSans-Regular-20" transform="translate(215.399963 0)"/>
     <use xlink:href="#NotoSans-Regular-49" transform="translate(241.399948 0)"/>
     <use xlink:href="#NotoSans-Regular-6d" transform="translate(275.299942 0)"/>
     <use xlink:href="#NotoSans-Regular-70" transform="translate(368.799927 0)"/>
     <use xlink:href="#NotoSans-Regular-75" transform="translate(430.299911 0)"/>
     <use xlink:href="#NotoSans-Regular-74" transform="translate(492.099899 0)"/>
     <use xlink:href="#NotoSans-Regular-61" transform="translate(528.19989 0)"/>
     <use xlink:href="#NotoSans-Regular-74" transform="translate(584.299881 0)"/>
     <use xlink:href="#NotoSans-Regular-69" transform="translate(620.399872 0)"/>
     <use xlink:href="#NotoSans-Regular-6f" transform="translate(646.19986 0)"/>
     <use xlink:href="#NotoSans-Regular-6e" transform="translate(706.699844 0)"/>
    </g>
   </g>
  </g>
  <g id="axes_4">
   <g id="patch_152">
    <path d="M 333.097031 342.74 
L 557.737031 342.74 
L 557.737031 220.08 
L 333.097031 220.08 
z
" style="fill: #eaeaf2"/>
   </g>
   <g id="matplotlib.axis_7">
    <g id="xtick_10">
     <g id="line2d_22">
      <path d="M 357.835383 342.74 
L 357.835383 220.08 
" clip-path="url(#p6f7f37118a)" style="fill: none; stroke: #ffffff; stroke-linecap: round"/>
     </g>
     <g id="text_31">
      <!-- −5 -->
      <g style="fill: #262626" transform="translate(350.080383 360.6) scale(0.11 -0.11)">
       <use xlink:href="#DejaVuSans-2212"/>
       <use xlink:href="#NotoSans-Regular-35" transform="translate(83.789062 0)"/>
      </g>
     </g>
    </g>
    <g id="xtick_11">
     <g id="line2d_23">
      <path d="M 425.913364 342.74 
L 425.913364 220.08 
" clip-path="url(#p6f7f37118a)" style="fill: none; stroke: #ffffff; stroke-linecap: round"/>
     </g>
     <g id="text_32">
      <!-- 0 -->
      <g style="fill: #262626" transform="translate(422.767192 360.6) scale(0.11 -0.11)">
       <use xlink:href="#NotoSans-Regular-30"/>
      </g>
     </g>
    </g>
    <g id="xtick_12">
     <g id="line2d_24">
      <path d="M 493.991346 342.74 
L 493.991346 220.08 
" clip-path="url(#p6f7f37118a)" style="fill: none; stroke: #ffffff; stroke-linecap: round"/>
     </g>
     <g id="text_33">
      <!-- 5 -->
      <g style="fill: #262626" transform="translate(490.845174 360.6) scale(0.11 -0.11)">
       <use xlink:href="#NotoSans-Regular-35"/>
      </g>
     </g>
    </g>
    <g id="text_34">
     <!-- Value -->
     <g style="fill: #262626" transform="translate(429.811406 376.36) scale(0.12 -0.12)">
      <use xlink:href="#NotoSans-Regular-56"/>
      <use xlink:href="#NotoSans-Regular-61" transform="translate(59.999985 0)"/>
      <use xlink:href="#NotoSans-Regular-6c" transform="translate(116.099976 0)"/>
      <use xlink:href="#NotoSans-Regular-75" transform="translate(141.899963 0)"/>
      <use xlink:href="#NotoSans-Regular-65" transform="translate(203.699951 0)"/>
     </g>
    </g>
   </g>
   <g id="matplotlib.axis_8">
    <g id="ytick_13">
     <g id="line2d_25">
      <path d="M 333.097031 342.74 
L 557.737031 342.74 
" clip-path="url(#p6f7f37118a)" style="fill: none; stroke: #ffffff; stroke-linecap: round"/>
     </g>
     <g id="text_35">
      <!-- 0 -->
      <g style="fill: #262626" transform="translate(317.304688 346.92) scale(0.11 -0.11)">
       <use xlink:href="#NotoSans-Regular-30"/>
      </g>
     </g>
    </g>
    <g id="ytick_14">
     <g id="line2d_26">
      <path d="M 333.097031 296.012381 
L 557.737031 296.012381 
" clip-path="url(#p6f7f37118a)" style="fill: none; stroke: #ffffff; stroke-linecap: round"/>
     </g>
     <g id="text_36">
      <!-- 100 -->
      <g style="fill: #262626" transform="translate(304.72 300.192381) scale(0.11 -0.11)">
       <use xlink:href="#NotoSans-Regular-31"/>
       <use xlink:href="#NotoSans-Regular-30" transform="translate(57.199997 0)"/>
       <use xlink:href="#NotoSans-Regular-30" transform="translate(114.399994 0)"/>
      </g>
     </g>
    </g>
    <g id="ytick_15">
     <g id="line2d_27">
      <path d="M 333.097031 249.284762 
L 557.737031 249.284762 
" clip-path="url(#p6f7f37118a)" style="fill: none; stroke: #ffffff; stroke-linecap: round"/>
     </g>
     <g id="text_37">
      <!-- 200 -->
      <g style="fill: #262626" transform="translate(304.72 253.464762) scale(0.11 -0.11)">
       <use xlink:href="#NotoSans-Regular-32"/>
       <use xlink:href="#NotoSans-Regular-30" transform="translate(57.199997 0)"/>
       <use xlink:href="#NotoSans-Regular-30" transform="translate(114.399994 0)"/>
      </g>
     </g>
    </g>
    <g id="text_38">
     <!-- Frequency -->
     <g style="fill: #262626" transform="translate(297.84 310.816562) rotate(-90) scale(0.12 -0.12)">
      <use xlink:href="#NotoSans-Regular-46"/>
      <use xlink:href="#NotoSans-Regular-72" transform="translate(51.899994 0)"/>
      <use xlink:href="#NotoSans-Regular-65" transform="translate(93.199982 0)"/>
      <use xlink:href="#NotoSans-Regular-71" transform="translate(149.599976 0)"/>
      <use xlink:href="#NotoSans-Regular-75" transform="translate(211.09996 0)"/>
      <use xlink:href="#NotoSans-Regular-65" transform="translate(272.899948 0)"/>
      <use xlink:href="#NotoSans-Regular-6e" transform="translate(329.299942 0)"/>
      <use xlink:href="#NotoSans-Regular-63" transform="translate(391.09993 0)"/>
      <use xlink:href="#NotoSans-Regular-79" transform="translate(439.099915 0)"/>
     </g>
    </g>
   </g>
   <g id="patch_153">
    <path d="M 343.30794 342.74 
L 347.392304 342.74 
L 347.392304 342.272724 
L 343.30794 342.272724 
z
" clip-path="url(#p6f7f37118a)" style="fill: #ffa07a; stroke: #000000; stroke-linejoin: miter"/>
   </g>
   <g id="patch_154">
    <path d="M 347.392304 342.74 
L 351.476668 342.74 
L 351.476668 342.74 
L 347.392304 342.74 
z
" clip-path="url(#p6f7f37118a)" style="fill: #ffa07a; stroke: #000000; stroke-linejoin: miter"/>
   </g>
   <g id="patch_155">
    <path d="M 351.476668 342.74 
L 355.561031 342.74 
L 355.561031 342.272724 
L 351.476668 342.272724 
z
" clip-path="url(#p6f7f37118a)" style="fill: #ffa07a; stroke: #000000; stroke-linejoin: miter"/>
   </g>
   <g id="patch_156">
    <path d="M 355.561031 342.74 
L 359.645395 342.74 
L 359.645395 342.272724 
L 355.561031 342.272724 
z
" clip-path="url(#p6f7f37118a)" style="fill: #ffa07a; stroke: #000000; stroke-linejoin: miter"/>
   </g>
   <g id="patch_157">
    <path d="M 359.645395 342.74 
L 363.729759 342.74 
L 363.729759 342.74 
L 359.645395 342.74 
z
" clip-path="url(#p6f7f37118a)" style="fill: #ffa07a; stroke: #000000; stroke-linejoin: miter"/>
   </g>
   <g id="patch_158">
    <path d="M 363.729759 342.74 
L 367.814122 342.74 
L 367.814122 342.272724 
L 363.729759 342.272724 
z
" clip-path="url(#p6f7f37118a)" style="fill: #ffa07a; stroke: #000000; stroke-linejoin: miter"/>
   </g>
   <g id="patch_159">
    <path d="M 367.814122 342.74 
L 371.898486 342.74 
L 371.898486 342.272724 
L 367.814122 342.272724 
z
" clip-path="url(#p6f7f37118a)" style="fill: #ffa07a; stroke: #000000; stroke-linejoin: miter"/>
   </g>
   <g id="patch_160">
    <path d="M 371.898486 342.74 
L 375.982849 342.74 
L 375.982849 341.805448 
L 371.898486 341.805448 
z
" clip-path="url(#p6f7f37118a)" style="fill: #ffa07a; stroke: #000000; stroke-linejoin: miter"/>
   </g>
   <g id="patch_161">
    <path d="M 375.982849 342.74 
L 380.067213 342.74 
L 380.067213 341.805448 
L 375.982849 341.805448 
z
" clip-path="url(#p6f7f37118a)" style="fill: #ffa07a; stroke: #000000; stroke-linejoin: miter"/>
   </g>
   <g id="patch_162">
    <path d="M 380.067213 342.74 
L 384.151577 342.74 
L 384.151577 339.469067 
L 380.067213 339.469067 
z
" clip-path="url(#p6f7f37118a)" style="fill: #ffa07a; stroke: #000000; stroke-linejoin: miter"/>
   </g>
   <g id="patch_163">
    <path d="M 384.151577 342.74 
L 388.23594 342.74 
L 388.23594 340.870895 
L 384.151577 340.870895 
z
" clip-path="url(#p6f7f37118a)" style="fill: #ffa07a; stroke: #000000; stroke-linejoin: miter"/>
   </g>
   <g id="patch_164">
    <path d="M 388.23594 342.74 
L 392.320304 342.74 
L 392.320304 338.534514 
L 388.23594 338.534514 
z
" clip-path="url(#p6f7f37118a)" style="fill: #ffa07a; stroke: #000000; stroke-linejoin: miter"/>
   </g>
   <g id="patch_165">
    <path d="M 392.320304 342.74 
L 396.404668 342.74 
L 396.404668 336.198133 
L 392.320304 336.198133 
z
" clip-path="url(#p6f7f37118a)" style="fill: #ffa07a; stroke: #000000; stroke-linejoin: miter"/>
   </g>
   <g id="patch_166">
    <path d="M 396.404668 342.74 
L 400.489031 342.74 
L 400.489031 331.525371 
L 396.404668 331.525371 
z
" clip-path="url(#p6f7f37118a)" style="fill: #ffa07a; stroke: #000000; stroke-linejoin: miter"/>
   </g>
   <g id="patch_167">
    <path d="M 400.489031 342.74 
L 404.573395 342.74 
L 404.573395 331.525371 
L 400.489031 331.525371 
z
" clip-path="url(#p6f7f37118a)" style="fill: #ffa07a; stroke: #000000; stroke-linejoin: miter"/>
   </g>
   <g id="patch_168">
    <path d="M 404.573395 342.74 
L 408.657759 342.74 
L 408.657759 331.525371 
L 404.573395 331.525371 
z
" clip-path="url(#p6f7f37118a)" style="fill: #ffa07a; stroke: #000000; stroke-linejoin: miter"/>
   </g>
   <g id="patch_169">
    <path d="M 408.657759 342.74 
L 412.742122 342.74 
L 412.742122 323.581676 
L 408.657759 323.581676 
z
" clip-path="url(#p6f7f37118a)" style="fill: #ffa07a; stroke: #000000; stroke-linejoin: miter"/>
   </g>
   <g id="patch_170">
    <path d="M 412.742122 342.74 
L 416.826486 342.74 
L 416.826486 318.908914 
L 412.742122 318.908914 
z
" clip-path="url(#p6f7f37118a)" style="fill: #ffa07a; stroke: #000000; stroke-linejoin: miter"/>
   </g>
   <g id="patch_171">
    <path d="M 416.826486 342.74 
L 420.910849 342.74 
L 420.910849 305.825181 
L 416.826486 305.825181 
z
" clip-path="url(#p6f7f37118a)" style="fill: #ffa07a; stroke: #000000; stroke-linejoin: miter"/>
   </g>
   <g id="patch_172">
    <path d="M 420.910849 342.74 
L 424.995213 342.74 
L 424.995213 306.759733 
L 420.910849 306.759733 
z
" clip-path="url(#p6f7f37118a)" style="fill: #ffa07a; stroke: #000000; stroke-linejoin: miter"/>
   </g>
   <g id="patch_173">
    <path d="M 424.995213 342.74 
L 429.079577 342.74 
L 429.079577 299.283314 
L 424.995213 299.283314 
z
" clip-path="url(#p6f7f37118a)" style="fill: #ffa07a; stroke: #000000; stroke-linejoin: miter"/>
   </g>
   <g id="patch_174">
    <path d="M 429.079577 342.74 
L 433.16394 342.74 
L 433.16394 272.181295 
L 429.079577 272.181295 
z
" clip-path="url(#p6f7f37118a)" style="fill: #ffa07a; stroke: #000000; stroke-linejoin: miter"/>
   </g>
   <g id="patch_175">
    <path d="M 433.16394 342.74 
L 437.248304 342.74 
L 437.248304 276.854057 
L 433.16394 276.854057 
z
" clip-path="url(#p6f7f37118a)" style="fill: #ffa07a; stroke: #000000; stroke-linejoin: miter"/>
   </g>
   <g id="patch_176">
    <path d="M 437.248304 342.74 
L 441.332668 342.74 
L 441.332668 261.901219 
L 437.248304 261.901219 
z
" clip-path="url(#p6f7f37118a)" style="fill: #ffa07a; stroke: #000000; stroke-linejoin: miter"/>
   </g>
   <g id="patch_177">
    <path d="M 441.332668 342.74 
L 445.417031 342.74 
L 445.417031 262.835771 
L 441.332668 262.835771 
z
" clip-path="url(#p6f7f37118a)" style="fill: #ffa07a; stroke: #000000; stroke-linejoin: miter"/>
   </g>
   <g id="patch_178">
    <path d="M 445.417031 342.74 
L 449.501395 342.74 
L 449.501395 254.4248 
L 445.417031 254.4248 
z
" clip-path="url(#p6f7f37118a)" style="fill: #ffa07a; stroke: #000000; stroke-linejoin: miter"/>
   </g>
   <g id="patch_179">
    <path d="M 449.501395 342.74 
L 453.585759 342.74 
L 453.585759 225.920952 
L 449.501395 225.920952 
z
" clip-path="url(#p6f7f37118a)" style="fill: #ffa07a; stroke: #000000; stroke-linejoin: miter"/>
   </g>
   <g id="patch_180">
    <path d="M 453.585759 342.74 
L 457.670122 342.74 
L 457.670122 232.930095 
L 453.585759 232.930095 
z
" clip-path="url(#p6f7f37118a)" style="fill: #ffa07a; stroke: #000000; stroke-linejoin: miter"/>
   </g>
   <g id="patch_181">
    <path d="M 457.670122 342.74 
L 461.754486 342.74 
L 461.754486 239.471962 
L 457.670122 239.471962 
z
" clip-path="url(#p6f7f37118a)" style="fill: #ffa07a; stroke: #000000; stroke-linejoin: miter"/>
   </g>
   <g id="patch_182">
    <path d="M 461.754486 342.74 
L 465.838849 342.74 
L 465.838849 254.892076 
L 461.754486 254.892076 
z
" clip-path="url(#p6f7f37118a)" style="fill: #ffa07a; stroke: #000000; stroke-linejoin: miter"/>
   </g>
   <g id="patch_183">
    <path d="M 465.838849 342.74 
L 469.923213 342.74 
L 469.923213 285.265029 
L 465.838849 285.265029 
z
" clip-path="url(#p6f7f37118a)" style="fill: #ffa07a; stroke: #000000; stroke-linejoin: miter"/>
   </g>
   <g id="patch_184">
    <path d="M 469.923213 342.74 
L 474.007577 342.74 
L 474.007577 274.517676 
L 469.923213 274.517676 
z
" clip-path="url(#p6f7f37118a)" style="fill: #ffa07a; stroke: #000000; stroke-linejoin: miter"/>
   </g>
   <g id="patch_185">
    <path d="M 474.007577 342.74 
L 478.09194 342.74 
L 478.09194 280.12499 
L 474.007577 280.12499 
z
" clip-path="url(#p6f7f37118a)" style="fill: #ffa07a; stroke: #000000; stroke-linejoin: miter"/>
   </g>
   <g id="patch_186">
    <path d="M 478.09194 342.74 
L 482.176304 342.74 
L 482.176304 298.348762 
L 478.09194 298.348762 
z
" clip-path="url(#p6f7f37118a)" style="fill: #ffa07a; stroke: #000000; stroke-linejoin: miter"/>
   </g>
   <g id="patch_187">
    <path d="M 482.176304 342.74 
L 486.260668 342.74 
L 486.260668 307.694286 
L 482.176304 307.694286 
z
" clip-path="url(#p6f7f37118a)" style="fill: #ffa07a; stroke: #000000; stroke-linejoin: miter"/>
   </g>
   <g id="patch_188">
    <path d="M 486.260668 342.74 
L 490.345031 342.74 
L 490.345031 317.507086 
L 486.260668 317.507086 
z
" clip-path="url(#p6f7f37118a)" style="fill: #ffa07a; stroke: #000000; stroke-linejoin: miter"/>
   </g>
   <g id="patch_189">
    <path d="M 490.345031 342.74 
L 494.429395 342.74 
L 494.429395 318.908914 
L 490.345031 318.908914 
z
" clip-path="url(#p6f7f37118a)" style="fill: #ffa07a; stroke: #000000; stroke-linejoin: miter"/>
   </g>
   <g id="patch_190">
    <path d="M 494.429395 342.74 
L 498.513759 342.74 
L 498.513759 324.983505 
L 494.429395 324.983505 
z
" clip-path="url(#p6f7f37118a)" style="fill: #ffa07a; stroke: #000000; stroke-linejoin: miter"/>
   </g>
   <g id="patch_191">
    <path d="M 498.513759 342.74 
L 502.598122 342.74 
L 502.598122 327.787162 
L 498.513759 327.787162 
z
" clip-path="url(#p6f7f37118a)" style="fill: #ffa07a; stroke: #000000; stroke-linejoin: miter"/>
   </g>
   <g id="patch_192">
    <path d="M 502.598122 342.74 
L 506.682486 342.74 
L 506.682486 333.394476 
L 502.598122 333.394476 
z
" clip-path="url(#p6f7f37118a)" style="fill: #ffa07a; stroke: #000000; stroke-linejoin: miter"/>
   </g>
   <g id="patch_193">
    <path d="M 506.682486 342.74 
L 510.766849 342.74 
L 510.766849 331.992648 
L 506.682486 331.992648 
z
" clip-path="url(#p6f7f37118a)" style="fill: #ffa07a; stroke: #000000; stroke-linejoin: miter"/>
   </g>
   <g id="patch_194">
    <path d="M 510.766849 342.74 
L 514.851213 342.74 
L 514.851213 339.469067 
L 510.766849 339.469067 
z
" clip-path="url(#p6f7f37118a)" style="fill: #ffa07a; stroke: #000000; stroke-linejoin: miter"/>
   </g>
   <g id="patch_195">
    <path d="M 514.851213 342.74 
L 518.935577 342.74 
L 518.935577 340.403619 
L 514.851213 340.403619 
z
" clip-path="url(#p6f7f37118a)" style="fill: #ffa07a; stroke: #000000; stroke-linejoin: miter"/>
   </g>
   <g id="patch_196">
    <path d="M 518.935577 342.74 
L 523.01994 342.74 
L 523.01994 339.469067 
L 518.935577 339.469067 
z
" clip-path="url(#p6f7f37118a)" style="fill: #ffa07a; stroke: #000000; stroke-linejoin: miter"/>
   </g>
   <g id="patch_197">
    <path d="M 523.01994 342.74 
L 527.104304 342.74 
L 527.104304 338.534514 
L 523.01994 338.534514 
z
" clip-path="url(#p6f7f37118a)" style="fill: #ffa07a; stroke: #000000; stroke-linejoin: miter"/>
   </g>
   <g id="patch_198">
    <path d="M 527.104304 342.74 
L 531.188668 342.74 
L 531.188668 341.338171 
L 527.104304 341.338171 
z
" clip-path="url(#p6f7f37118a)" style="fill: #ffa07a; stroke: #000000; stroke-linejoin: miter"/>
   </g>
   <g id="patch_199">
    <path d="M 531.188668 342.74 
L 535.273031 342.74 
L 535.273031 342.74 
L 531.188668 342.74 
z
" clip-path="url(#p6f7f37118a)" style="fill: #ffa07a; stroke: #000000; stroke-linejoin: miter"/>
   </g>
   <g id="patch_200">
    <path d="M 535.273031 342.74 
L 539.357395 342.74 
L 539.357395 342.272724 
L 535.273031 342.272724 
z
" clip-path="url(#p6f7f37118a)" style="fill: #ffa07a; stroke: #000000; stroke-linejoin: miter"/>
   </g>
   <g id="patch_201">
    <path d="M 539.357395 342.74 
L 543.441759 342.74 
L 543.441759 342.272724 
L 539.357395 342.272724 
z
" clip-path="url(#p6f7f37118a)" style="fill: #ffa07a; stroke: #000000; stroke-linejoin: miter"/>
   </g>
   <g id="patch_202">
    <path d="M 543.441759 342.74 
L 547.526122 342.74 
L 547.526122 342.272724 
L 543.441759 342.272724 
z
" clip-path="url(#p6f7f37118a)" style="fill: #ffa07a; stroke: #000000; stroke-linejoin: miter"/>
   </g>
   <g id="patch_203">
    <path d="M 333.097031 342.74 
L 333.097031 220.08 
" style="fill: none; stroke: #ffffff; stroke-width: 1.25; stroke-linejoin: miter; stroke-linecap: square"/>
   </g>
   <g id="patch_204">
    <path d="M 557.737031 342.74 
L 557.737031 220.08 
" style="fill: none; stroke: #ffffff; stroke-width: 1.25; stroke-linejoin: miter; stroke-linecap: square"/>
   </g>
   <g id="patch_205">
    <path d="M 333.097031 342.74 
L 557.737031 342.74 
" style="fill: none; stroke: #ffffff; stroke-width: 1.25; stroke-linejoin: miter; stroke-linecap: square"/>
   </g>
   <g id="patch_206">
    <path d="M 333.097031 220.08 
L 557.737031 220.08 
" style="fill: none; stroke: #ffffff; stroke-width: 1.25; stroke-linejoin: miter; stroke-linecap: square"/>
   </g>
   <g id="text_39">
    <!-- kNN Imputation (k=5) -->
    <g style="fill: #262626" transform="translate(374.55625 210.08) scale(0.14 -0.14)">
     <defs>
      <path id="NotoSans-Regular-6b" d="M 1101 2323 
Q 1101 2221 1091 2054 
Q 1082 1888 1075 1766 
L 1101 1766 
Q 1139 1818 1216 1914 
Q 1293 2010 1373 2109 
Q 1453 2208 1510 2272 
L 2605 3430 
L 3264 3430 
L 1875 1965 
L 3360 0 
L 2682 0 
L 1491 1600 
L 1101 1261 
L 1101 0 
L 544 0 
L 544 4864 
L 1101 4864 
L 1101 2323 
z
" transform="scale(0.015625)"/>
      <path id="NotoSans-Regular-4e" d="M 4243 0 
L 3571 0 
L 1126 3795 
L 1101 3795 
Q 1114 3571 1133 3238 
Q 1152 2906 1152 2554 
L 1152 0 
L 621 0 
L 621 4570 
L 1286 4570 
L 3725 787 
L 3750 787 
Q 3744 890 3734 1094 
Q 3725 1299 3715 1542 
Q 3706 1786 3706 1990 
L 3706 4570 
L 4243 4570 
L 4243 0 
z
" transform="scale(0.015625)"/>
      <path id="NotoSans-Regular-28" d="M 256 1754 
Q 256 2534 483 3260 
Q 710 3987 1197 4570 
L 1728 4570 
Q 1280 3968 1053 3245 
Q 826 2522 826 1760 
Q 826 1018 1053 304 
Q 1280 -410 1722 -1011 
L 1197 -1011 
Q 710 -448 483 265 
Q 256 979 256 1754 
z
" transform="scale(0.015625)"/>
      <path id="NotoSans-Regular-3d" d="M 358 2662 
L 358 3117 
L 3290 3117 
L 3290 2662 
L 358 2662 
z
M 358 1389 
L 358 1843 
L 3290 1843 
L 3290 1389 
L 358 1389 
z
" transform="scale(0.015625)"/>
      <path id="NotoSans-Regular-29" d="M 1664 1754 
Q 1664 979 1437 265 
Q 1210 -448 723 -1011 
L 198 -1011 
Q 640 -410 867 304 
Q 1094 1018 1094 1760 
Q 1094 2522 867 3245 
Q 640 3968 192 4570 
L 723 4570 
Q 1210 3987 1437 3260 
Q 1664 2534 1664 1754 
z
" transform="scale(0.015625)"/>
     </defs>
     <use xlink:href="#NotoSans-Regular-6b"/>
     <use xlink:href="#NotoSans-Regular-4e" transform="translate(53.399994 0)"/>
     <use xlink:href="#NotoSans-Regular-4e" transform="translate(129.399979 0)"/>
     <use xlink:href="#NotoSans-Regular-20" transform="translate(205.399963 0)"/>
     <use xlink:href="#NotoSans-Regular-49" transform="translate(231.399948 0)"/>
     <use xlink:href="#NotoSans-Regular-6d" transform="translate(265.299942 0)"/>
     <use xlink:href="#NotoSans-Regular-70" transform="translate(358.799927 0)"/>
     <use xlink:href="#NotoSans-Regular-75" transform="translate(420.299911 0)"/>
     <use xlink:href="#NotoSans-Regular-74" transform="translate(482.099899 0)"/>
     <use xlink:href="#NotoSans-Regular-61" transform="translate(518.19989 0)"/>
     <use xlink:href="#NotoSans-Regular-74" transform="translate(574.299881 0)"/>
     <use xlink:href="#NotoSans-Regular-69" transform="translate(610.399872 0)"/>
     <use xlink:href="#NotoSans-Regular-6f" transform="translate(636.19986 0)"/>
     <use xlink:href="#NotoSans-Regular-6e" transform="translate(696.699844 0)"/>
     <use xlink:href="#NotoSans-Regular-20" transform="translate(758.499832 0)"/>
     <use xlink:href="#NotoSans-Regular-28" transform="translate(784.499817 0)"/>
     <use xlink:href="#NotoSans-Regular-6b" transform="translate(814.499802 0)"/>
     <use xlink:href="#NotoSans-Regular-3d" transform="translate(867.899796 0)"/>
     <use xlink:href="#NotoSans-Regular-35" transform="translate(925.099792 0)"/>
     <use xlink:href="#NotoSans-Regular-29" transform="translate(982.299789 0)"/>
    </g>
   </g>
  </g>
 </g>
 <defs>
  <clipPath id="pfee1620323">
   <rect x="51.577031" y="27.84" width="224.64" height="122.66"/>
  </clipPath>
  <clipPath id="p464bd71f65">
   <rect x="333.097031" y="27.84" width="224.64" height="122.66"/>
  </clipPath>
  <clipPath id="p6d65af22a1">
   <rect x="51.577031" y="220.08" width="224.64" height="122.66"/>
  </clipPath>
  <clipPath id="p6f7f37118a">
   <rect x="333.097031" y="220.08" width="224.64" height="122.66"/>
  </clipPath>
 </defs>
</svg>
